<?xml version="1.0" standalone="no"?>
<!DOCTYPE svg PUBLIC "-//W3C//DTD SVG 1.1//EN" "http://www.w3.org/Graphics/SVG/1.1/DTD/svg11.dtd" >
<svg xmlns="http://www.w3.org/2000/svg" xmlns:xlink="http://www.w3.org/1999/xlink" version="1.1">
<metadata>
Created by FontForge 20190801 at Thu Feb 11 09:57:46 2021
 By www-data
Copyright (c) 2021 - qtypography | Qassim Haider. All rights reserved.
</metadata>
<defs>
<font id="AlHakmiahArThin23" horiz-adv-x="0" >
  <font-face 
    font-family="AlHakmiahArThin23"
    font-weight="100"
    font-stretch="normal"
    units-per-em="1360"
    panose-1="0 0 0 0 0 0 0 0 0 0"
    ascent="910"
    descent="-450"
    bbox="0 -450 1347 938"
    underline-thickness="20"
    underline-position="-80"
    unicode-range="U+0020-FF1F"
  />
<missing-glyph horiz-adv-x="293" 
d="M241 0h-190v498h190v-498zM77 69l56 178l-56 178v-356zM89 472l57 -182l57 182h-114zM90 26h112l-56 178zM160 247l56 -178v356z" />
    <glyph glyph-name="uni0627064B" unicode="&#x627;&#x64b;" horiz-adv-x="225" arabic-form="isolated" 
d="M89 0v475h47v-475h-47zM90 512v16l146 41v-16zM90 571v16l146 41v-16z" />
    <glyph glyph-name="uni0622.fina" unicode="&#x622;" horiz-adv-x="244" arabic-form="final" 
d="M89 0v475h47v-428h118v-47h-165zM25 493v2v-2zM25 495l29 4v3q0 5 3 8t7 3h62q15 0 25.5 9.5t13.5 23.5v6v-6h-28v-3q0 -5 -3 -8t-8 -3h-62q-15 0 -26.5 -10.5t-12.5 -26.5z" />
    <glyph glyph-name="uni0623.fina" unicode="&#x623;" horiz-adv-x="244" arabic-form="final" 
d="M89 0v475h47v-428h118v-47h-165zM21 513v19h42q-18 18 -18 44t18.5 44.5t44.5 18.5h34v-19h-34q-12 0 -22 -5.5t-16 -16t-6 -22.5q0 -18 13 -31t31 -13h53v-19h-140z" />
    <glyph glyph-name="uni0624.fina" unicode="&#x624;" horiz-adv-x="488" arabic-form="final" 
d="M209 0q-66 0 -112 46t-46 111t46 111.5t112 46.5h177v-268h116v-47h-116v-59q0 -86 -61 -147t-147 -61h-40l-23 47h63q67 0 114 47t47 114v59h-130zM98 157.5q0 -45.5 32.5 -78t78.5 -32.5h130v221h-130q-46 0 -78.5 -32.5t-32.5 -78zM169 378v24h55q-24 23 -24 56.5
t23.5 57t56.5 23.5h43v-23h-43q-23 0 -40 -17t-17 -40.5t17 -40t40 -16.5h67v-24h-67h-111z" />
    <glyph glyph-name="uni0625.fina" unicode="&#x625;" horiz-adv-x="244" arabic-form="final" 
d="M89 0v475h47v-428h118v-47h-165zM8 -174v18h42q-18 19 -18 45t18.5 44.5t44.5 18.5h33v-19h-33q-18 0 -31 -13t-13 -31.5t13 -31.5t31 -13h52v-18h-139z" />
    <glyph glyph-name="uni0626.init" unicode="&#x626;" horiz-adv-x="207" arabic-form="initial" 
d="M0 0v47h108v268h47v-315h-155zM54 414v12h41q-20 16 -20 41q0 22 15.5 37.5t37.5 15.5h27v-12h-27q-17 0 -29 -12t-12 -29t12 -29t29 -12h44v-12h-118z" />
    <glyph glyph-name="uni0626.medi" unicode="&#x626;" horiz-adv-x="264" arabic-form="medial" 
d="M0 0v47h35q30 0 51.5 21.5t21.5 51.5v195h47v-195q0 -50 -35 -85t-85 -35h-35zM54 414v12h41q-20 16 -20 41q0 22 15.5 37.5t37.5 15.5h27v-12h-27q-17 0 -29 -12t-12 -29t12 -29t29 -12h44v-12h-118zM141 47h132v-47h-74q-28 0 -43 23z" />
    <glyph glyph-name="uni0626.fina" unicode="&#x626;" horiz-adv-x="1041" arabic-form="final" 
d="M706 47v-47h-495q-65 0 -111 46t-46 111t46 111.5t111 46.5h123v-47h-123q-45 0 -77.5 -32.5t-32.5 -78t32.5 -78t77.5 -32.5h448v110q0 65 46 111.5t112 46.5h122v-268h112v-47h-159v268h-75q-46 0 -78.5 -32.5t-32.5 -78.5v-110zM156 378v23h54q-23 24 -23 58
q0 21 10.5 40t29 29.5t40.5 10.5h43v-23h-43q-11 0 -22 -4.5t-18.5 -12.5t-12 -18.5t-4.5 -21.5q0 -24 17 -41t40 -17h67v-23h-67h-111z" />
    <glyph glyph-name="uni0627.fina" unicode="&#x627;" horiz-adv-x="244" arabic-form="final" 
d="M89 0v475h47v-428h118v-47h-165z" />
    <glyph glyph-name="uni0629.fina" unicode="&#x629;" horiz-adv-x="488" arabic-form="final" 
d="M209 0q-66 0 -112 46t-46 111t46 111t112 46h177v-47v-220h112v-47h-159v267h-130q-46 0 -78.5 -32t-32.5 -78t32.5 -78t78.5 -32h65l-22 -47h-43zM150 484q0 5 2 10.5t5.5 10t7.5 7.5t9.5 5t11.5 2q15 0 25.5 -10.5t10.5 -25t-10.5 -25t-25.5 -10.5t-25.5 10.5
t-10.5 25.5zM286 483.5q0 14.5 10.5 25t25 10.5t25 -10.5t10.5 -25t-10.5 -25t-25 -10.5t-25 10.5t-10.5 25z" />
    <glyph glyph-name="uni062A.init" unicode="&#x62a;" horiz-adv-x="296" arabic-form="initial" 
d="M0 0v47h195v268h47v-315h-242zM47 484q0 14 10.5 24.5t25.5 10.5t25.5 -10.5t10.5 -25t-10.5 -25t-25.5 -10.5q-10 0 -18 5t-13 13t-5 18zM183 484q0 14 10.5 24.5t25 10.5t25 -10.5t10.5 -25t-10.5 -25t-24.5 -10.5q-10 0 -18 5t-13 13t-5 18z" />
    <glyph glyph-name="uni062A.medi" unicode="&#x62a;" horiz-adv-x="350" arabic-form="medial" 
d="M0 0v47h122q30 0 51.5 21.5t21.5 51.5v195h47v-195q0 -19 -6 -37.5t-17 -33.5t-26 -26t-33.5 -17t-37.5 -6h-122zM47 484q0 14 10.5 24.5t25.5 10.5q10 0 18 -4.5t13 -13t5 -17.5q0 -15 -10.5 -25.5t-25.5 -10.5q-10 0 -18 5t-13 13t-5 18zM183 484q0 14 10.5 24.5
t25 10.5t25 -10.5t10.5 -25t-10.5 -25t-24.5 -10.5q-10 0 -18 5t-13 13t-5 18zM228 47h134v-47h-77q-27 0 -42 23z" />
    <glyph glyph-name="uni062A.fina" unicode="&#x62a;" horiz-adv-x="815" arabic-form="final" 
d="M211 0q-42 0 -78.5 21t-57.5 57.5t-21 78.5q0 65 46 111.5t111 46.5h25v-47h-25q-45 0 -77.5 -32.5t-32.5 -78t32.5 -78t77.5 -32.5h376q30 0 51.5 21.5t21.5 51.5v195h47v-195q0 -49 -35 -84.5t-85 -35.5h-376zM333 484q0 14 10.5 24.5t25.5 10.5q9 0 17.5 -4.5t13 -13
t4.5 -17.5q0 -15 -10.5 -25.5t-24.5 -10.5q-10 0 -18 5t-13 13t-5 18zM469 484q0 14 10.5 24.5t25 10.5t25 -10.5t10.5 -25t-10.5 -25t-25.5 -10.5q-9 0 -17.5 5t-13 13t-4.5 18zM693 47h132v-47h-74q-28 0 -43 23z" />
    <glyph glyph-name="uni062B.init" unicode="&#x62b;" horiz-adv-x="296" arabic-form="initial" 
d="M0 0v47h195v268h47v-315h-242zM47 484q0 14 10.5 24.5t25.5 10.5t25.5 -10.5t10.5 -25t-10.5 -25t-25.5 -10.5q-10 0 -18 5t-13 13t-5 18zM115 605q0 14 10.5 24.5t25 10.5t25 -10.5t10.5 -25t-10.5 -25t-24.5 -10.5q-10 0 -18 5t-13 13t-5 18zM183 484q0 14 10.5 24.5
t25 10.5t25 -10.5t10.5 -25t-10.5 -25t-24.5 -10.5q-10 0 -18 5t-13 13t-5 18z" />
    <glyph glyph-name="uni062B.medi" unicode="&#x62b;" horiz-adv-x="350" arabic-form="medial" 
d="M0 0v47h122q30 0 51.5 21.5t21.5 51.5v195h47v-195q0 -19 -6 -37.5t-17 -33.5t-26 -26t-33.5 -17t-37.5 -6h-122zM47 484q0 14 10.5 24.5t25.5 10.5q10 0 18 -4.5t13 -13t5 -17.5q0 -15 -10.5 -25.5t-25.5 -10.5q-10 0 -18 5t-13 13t-5 18zM115 604.5q0 9.5 5 18t13 13
t18 4.5q14 0 24.5 -10.5t10.5 -25t-10.5 -25t-24.5 -10.5q-10 0 -18 5t-13 13t-5 17.5zM183 484q0 14 10.5 24.5t25 10.5t25 -10.5t10.5 -25t-10.5 -25t-24.5 -10.5q-10 0 -18 5t-13 13t-5 18zM228 47h134v-47h-77q-27 0 -42 23z" />
    <glyph glyph-name="uni062B.fina" unicode="&#x62b;" horiz-adv-x="815" arabic-form="final" 
d="M211 0q-42 0 -78.5 21t-57.5 57.5t-21 78.5q0 65 46 111.5t111 46.5h25v-47h-25q-45 0 -77.5 -32.5t-32.5 -78t32.5 -78t77.5 -32.5h376q30 0 51.5 21.5t21.5 51.5v195h47v-195q0 -49 -35 -84.5t-85 -35.5h-376zM333 484q0 14 10.5 24.5t25.5 10.5q9 0 17.5 -4.5t13 -13
t4.5 -17.5q0 -15 -10.5 -25.5t-24.5 -10.5q-10 0 -18 5t-13 13t-5 18zM401 605q0 9 4.5 17.5t13 13t17.5 4.5q15 0 25.5 -10.5t10.5 -25t-10.5 -25t-25 -10.5t-25 10.5t-10.5 25.5zM469 484q0 14 10.5 24.5t25 10.5t25 -10.5t10.5 -25t-10.5 -25t-25.5 -10.5q-9 0 -17.5 5
t-13 13t-4.5 18zM693 47h132v-47h-74q-28 0 -43 23z" />
    <glyph glyph-name="uni062C.init" unicode="&#x62c;" horiz-adv-x="578" arabic-form="initial" 
d="M477 157q0 46 -32.5 78.5t-78.5 32.5h-219q-16 0 -23 14l-16 33h258q65 0 111.5 -46.5t46.5 -111.5v-157h-524v47h477v110zM326 -144q0 15 10.5 25t25 10t25 -10t10.5 -25q0 -10 -5 -18t-13 -13t-18 -5q-14 0 -24.5 10.5t-10.5 25.5z" />
    <glyph glyph-name="uni062C.medi" unicode="&#x62c;" horiz-adv-x="632" arabic-form="medial" 
d="M477 157q0 46 -32.5 78.5t-78.5 32.5h-219q-16 0 -23 14l-16 33h258q65 0 111.5 -46.5t46.5 -111.5v-110h118v-47h-642v47h477v110zM326 -144q0 15 10.5 25t25 10t25 -10t10.5 -25t-10.5 -25.5t-25 -10.5t-25 10.5t-10.5 25.5z" />
    <glyph glyph-name="uni062C.fina" unicode="&#x62c;" horiz-adv-x="703" arabic-form="final" 
d="M54 -110q0 65 46 111t111 46h337v110q0 46 -32.5 78.5t-77.5 32.5h-219q-17 0 -24 14l-15 33h258q65 0 111 -46.5t46 -111.5v-110h118v-47h-502q-45 0 -77.5 -32.5t-32.5 -77.5q0 -44 30 -76t74 -34l-21 -45q-56 10 -93 53.5t-37 101.5zM397 -144q0 10 5 18t13 12.5
t18 4.5q14 0 24.5 -10t10.5 -25t-10.5 -25.5t-24.5 -10.5q-10 0 -18 5t-13 13t-5 18z" />
    <glyph glyph-name="uni062D.init" unicode="&#x62d;" horiz-adv-x="578" arabic-form="initial" 
d="M477 157q0 46 -32.5 78.5t-78.5 32.5h-219q-16 0 -23 14l-16 33h258q65 0 111.5 -46.5t46.5 -111.5v-157h-524v47h477v110z" />
    <glyph glyph-name="uni062D.medi" unicode="&#x62d;" horiz-adv-x="632" arabic-form="medial" 
d="M477 157q0 46 -32.5 78.5t-78.5 32.5h-219q-16 0 -23 14l-16 33h258q65 0 111.5 -46.5t46.5 -111.5v-110h118v-47h-642v47h477v110z" />
    <glyph glyph-name="uni062D.fina" unicode="&#x62d;" horiz-adv-x="703" arabic-form="final" 
d="M54 -110q0 65 46 111t111 46h337v110q0 46 -32.5 78.5t-77.5 32.5h-219q-17 0 -24 14l-15 33h258q65 0 111 -46.5t46 -111.5v-110h118v-47h-502q-45 0 -77.5 -32.5t-32.5 -77.5q0 -44 30 -76t74 -34l-21 -45q-56 10 -93 53.5t-37 101.5z" />
    <glyph glyph-name="uni062E.init" unicode="&#x62e;" horiz-adv-x="578" arabic-form="initial" 
d="M477 157q0 46 -32.5 78.5t-78.5 32.5h-219q-16 0 -23 14l-16 33h258q65 0 111.5 -46.5t46.5 -111.5v-157h-524v47h477v110zM242 484q0 9 4.5 17.5t13 13t18 4.5t17.5 -4.5t13 -13t5 -17.5q0 -15 -10.5 -25.5t-25 -10.5t-25 10.5t-10.5 25.5z" />
    <glyph glyph-name="uni062E.medi" unicode="&#x62e;" horiz-adv-x="632" arabic-form="medial" 
d="M477 157q0 46 -32.5 78.5t-78.5 32.5h-219q-16 0 -23 14l-16 33h258q65 0 111.5 -46.5t46.5 -111.5v-110h118v-47h-642v47h477v110zM242 484q0 9 4.5 17.5t13 13t17.5 4.5q15 0 25.5 -10.5t10.5 -25t-10.5 -25t-25 -10.5t-25 10.5t-10.5 25.5z" />
    <glyph glyph-name="uni062E.fina" unicode="&#x62e;" horiz-adv-x="703" arabic-form="final" 
d="M54 -110q0 65 46 111t111 46h337v110q0 46 -32.5 78.5t-77.5 32.5h-219q-17 0 -24 14l-15 33h258q65 0 111 -46.5t46 -111.5v-110h118v-47h-502q-45 0 -77.5 -32.5t-32.5 -77.5q0 -44 30 -76t74 -34l-21 -45q-56 10 -93 53.5t-37 101.5zM313 484q0 9 5 17.5t13 13t18 4.5
q7 0 13.5 -2.5t11.5 -7.5t7.5 -11.5t2.5 -13.5q0 -15 -10 -25.5t-25 -10.5t-25.5 10.5t-10.5 25.5z" />
    <glyph glyph-name="uni062F.fina" unicode="&#x62f;" horiz-adv-x="519" arabic-form="final" 
d="M363 157q0 46 -32 78.5t-78 32.5h-101q-17 0 -24 14l-15 33h140q65 0 111 -46.5t46 -111.5v-110h119v-47h-119h-47h-309v47h309v110z" />
    <glyph glyph-name="uni0630.fina" unicode="&#x630;" horiz-adv-x="519" arabic-form="final" 
d="M363 157q0 46 -32 78.5t-78 32.5h-101q-17 0 -24 14l-15 33h140q65 0 111 -46.5t46 -111.5v-110h119v-47h-119h-47h-309v47h309v110zM138 483.5q0 14.5 10.5 25t25 10.5t25 -10.5t10.5 -25t-10.5 -25t-25 -10.5t-25 10.5t-10.5 25z" />
    <glyph glyph-name="uni0631.fina" unicode="&#x631;" horiz-adv-x="283" arabic-form="final" 
d="M48 -267h-25l-23 47h48q40 0 68 28t28 68v439h47v-268h103v-47h-47q-27 0 -42 23l-14 22v-169q0 -60 -42 -101.5t-101 -41.5z" />
    <glyph glyph-name="uni0632.fina" unicode="&#x632;" horiz-adv-x="283" arabic-form="final" 
d="M23 -267l-23 47h48q19 0 37 7.5t31 20.5t20.5 30.5t7.5 37.5v439h47v-268h103v-47h-47q-27 0 -42 23l-14 22v-169q0 -60 -42 -101.5t-101 -41.5h-25zM132 483.5q0 14.5 10.5 25t25 10.5t25 -10.5t10.5 -25t-10.5 -25t-25 -10.5t-25 10.5t-10.5 25z" />
    <glyph glyph-name="uni0633.init" unicode="&#x633;" horiz-adv-x="742" arabic-form="initial" 
d="M368 0l-13 27q-37 -27 -83 -27h-133h-139v47h92v268h47v-268h133q39 0 66.5 27.5t27.5 67.5v173h47v-173q0 -55 -36 -95h169q39 0 67 28t28 67v173h47v-173q0 -59 -42 -100.5t-100 -41.5h-178z" />
    <glyph glyph-name="uni0633.medi" unicode="&#x633;" horiz-adv-x="918" arabic-form="medial" 
d="M437 0l-13 27q-37 -27 -83 -27h-133h-208v47h161v268h47v-268h133q39 0 66.5 27.5t27.5 67.5v173h47v-173q0 -55 -36 -95h169q39 0 67 28t28 67v173h47v-173q0 -59 -41.5 -100.5t-100.5 -41.5h-178zM721 47h207v-47h-149q-27 0 -42 23z" />
    <glyph glyph-name="uni0633.fina" unicode="&#x633;" horiz-adv-x="1337" arabic-form="final" 
d="M341 -267q-119 0 -203 84t-84 203v74h47v-74q0 -100 70.5 -170t169.5 -70q65 0 120.5 32t87.5 87t32 121v295h47v-268h132q39 0 67 27.5t28 67.5v173h47v-173q0 -55 -36 -95h168q40 0 67.5 27.5t27.5 67.5v173h47v-173q0 -59 -41.5 -100.5t-100.5 -41.5h-177l-13 27
q-38 -27 -84 -27h-133q-7 -112 -90 -189.5t-196 -77.5zM1141 47h206v-47h-148q-28 0 -43 23z" />
    <glyph glyph-name="uni0634.init" unicode="&#x634;" horiz-adv-x="811" arabic-form="initial" 
d="M437 0l-13 27q-37 -27 -83 -27h-133h-208v47h161v268h47v-268h133q39 0 66.5 27.5t27.5 67.5v173h47v-173q0 -55 -36 -95h169q39 0 67 28t28 67v173h47v-173q0 -59 -41.5 -100.5t-100.5 -41.5h-178zM355 483.5q0 14.5 10.5 25t25 10.5t25 -10.5t10.5 -25t-10.5 -25
t-25 -10.5t-25 10.5t-10.5 25zM423 605q0 9 5 17.5t13 13t18 4.5q14 0 24.5 -10.5t10.5 -25t-10.5 -25t-25 -10.5t-25 10.5t-10.5 25.5zM491 484q0 9 4.5 17.5t13 13t17.5 4.5q15 0 25.5 -10.5t10.5 -25t-10.5 -25t-25 -10.5t-25 10.5t-10.5 25.5z" />
    <glyph glyph-name="uni0634.medi" unicode="&#x634;" horiz-adv-x="918" arabic-form="medial" 
d="M437 0l-13 27q-37 -27 -83 -27h-133h-208v47h161v268h47v-268h133q39 0 66.5 27.5t27.5 67.5v173h47v-173q0 -55 -36 -95h169q39 0 67 28t28 67v173h47v-173q0 -59 -41.5 -100.5t-100.5 -41.5h-178zM355 483.5q0 14.5 10.5 25t25 10.5t25 -10.5t10.5 -25t-10.5 -25
t-25 -10.5t-25 10.5t-10.5 25zM423 605q0 9 5 17.5t13 13t18 4.5q14 0 24.5 -10.5t10.5 -25t-10.5 -25t-25 -10.5t-25 10.5t-10.5 25.5zM491 484q0 9 4.5 17.5t13 13t17.5 4.5q15 0 25.5 -10.5t10.5 -25t-10.5 -25t-25 -10.5t-25 10.5t-10.5 25.5zM721 47h207v-47h-149
q-27 0 -42 23z" />
    <glyph glyph-name="uni0634.fina" unicode="&#x634;" horiz-adv-x="1337" arabic-form="final" 
d="M341 -267q-119 0 -203 84t-84 203v74h47v-74q0 -100 70.5 -170t169.5 -70q65 0 120.5 32t87.5 87t32 121v295h47v-268h132q39 0 67 27.5t28 67.5v173h47v-173q0 -55 -36 -95h168q40 0 67.5 27.5t27.5 67.5v173h47v-173q0 -59 -41.5 -100.5t-100.5 -41.5h-177l-13 27
q-38 -27 -84 -27h-133q-7 -112 -90 -189.5t-196 -77.5zM775 484q0 14 10.5 24.5t25 10.5t25 -10.5t10.5 -25t-10.5 -25t-25.5 -10.5q-9 0 -17.5 5t-13 13t-4.5 18zM843 605q0 9 4.5 17.5t13 13t17.5 4.5q15 0 25.5 -10.5t10.5 -25t-10.5 -25t-25.5 -10.5t-25 10.5t-10 25.5z
M910 484q0 14 10.5 24.5t25.5 10.5t25 -10.5t10 -25t-10 -25t-25 -10.5q-10 0 -18 5t-13 13t-5 18zM1141 47h206v-47h-148q-28 0 -43 23z" />
    <glyph glyph-name="uni0635.init" unicode="&#x635;" horiz-adv-x="758" arabic-form="initial" 
d="M0 0v47h84h24v268h47v-268h392q29 0 54.5 15t40.5 40t15 55q0 46 -32.5 78.5t-77.5 32.5h-362l23 47h339q42 0 78.5 -21.5t57.5 -57.5t21 -79q0 -65 -46 -111t-111 -46h-547z" />
    <glyph glyph-name="uni0635.medi" unicode="&#x635;" horiz-adv-x="810" arabic-form="medial" 
d="M0 0v47h84h23v268h48v-268h391q45 0 77.5 32.5t32.5 78t-32.5 78t-77.5 32.5h-362l23 47h339q65 0 111 -46.5t46 -111.5t-46 -111t-111 -46h-391h-155zM668 47h152v-47h-94q-28 0 -43 23z" />
    <glyph glyph-name="uni0635.fina" unicode="&#x635;" horiz-adv-x="1284" arabic-form="final" 
d="M341 -267q-119 0 -203 84t-84 203v74h47v-74q0 -66 32 -121t87.5 -87t120.5 -32q99 0 169.5 70t70.5 170v295h47v-268h391q46 0 78 32.5t32 77.5q0 30 -14.5 55.5t-40 40.5t-55.5 15h-362l23 47h339q65 0 111 -46.5t46 -111.5t-46 -111t-111 -46h-392q-7 -112 -90 -189.5
t-196 -77.5zM1141 47h153v-47h-95q-28 0 -42 23z" />
    <glyph glyph-name="uni0636.init" unicode="&#x636;" horiz-adv-x="758" arabic-form="initial" 
d="M0 0v47h84h24v268h47v-268h392q29 0 54.5 15t40.5 40t15 55q0 46 -32.5 78.5t-77.5 32.5h-362l23 47h339q42 0 78.5 -21.5t57.5 -57.5t21 -79q0 -65 -46 -111t-111 -46h-547zM380 484q0 9 4.5 17.5t12.5 13t18 4.5t18 -4.5t13 -13t5 -17.5q0 -15 -10.5 -25.5t-25.5 -10.5
t-25 10.5t-10 25.5z" />
    <glyph glyph-name="uni0636.medi" unicode="&#x636;" horiz-adv-x="810" arabic-form="medial" 
d="M0 0v47h84h23v268h48v-268h391q45 0 77.5 32.5t32.5 78t-32.5 78t-77.5 32.5h-362l23 47h339q65 0 111 -46.5t46 -111.5t-46 -111t-111 -46h-391h-155zM379 483.5q0 14.5 10.5 25t25 10.5t25 -10.5t10.5 -25t-10.5 -25t-25 -10.5t-25 10.5t-10.5 25zM668 47h152v-47h-94
q-28 0 -43 23z" />
    <glyph glyph-name="uni0636.fina" unicode="&#x636;" horiz-adv-x="1284" arabic-form="final" 
d="M341 -267q-119 0 -203 84t-84 203v74h47v-74q0 -66 32 -121t87.5 -87t120.5 -32q99 0 169.5 70t70.5 170v295h47v-268h391q46 0 78 32.5t32 77.5q0 30 -14.5 55.5t-40 40.5t-55.5 15h-362l23 47h339q65 0 111 -46.5t46 -111.5t-46 -111t-111 -46h-392q-7 -112 -90 -189.5
t-196 -77.5zM852 483.5q0 14.5 10.5 25t25 10.5t25 -10.5t10.5 -25t-10.5 -25t-25 -10.5t-25 10.5t-10.5 25zM1141 47h153v-47h-95q-28 0 -42 23z" />
    <glyph glyph-name="uni0637.init" unicode="&#x637;" horiz-adv-x="757" arabic-form="initial" 
d="M0 0v47h107v428h48v-428h391q45 0 77.5 32.5t32.5 78t-32.5 78t-77.5 32.5h-362l23 47h339q65 0 111 -46.5t46 -111.5t-46 -111t-111 -46h-546z" />
    <glyph glyph-name="uni0637.medi" unicode="&#x637;" horiz-adv-x="811" arabic-form="medial" 
d="M0 0v47h107v428h48v-428h391q45 0 77.5 32.5t32.5 78t-32.5 78t-77.5 32.5h-362l23 47h339q65 0 111 -46.5t46 -111.5t-46 -111t-111 -46h-546zM668 47h153v-47h-95q-28 0 -43 23z" />
    <glyph glyph-name="uni0637.fina" unicode="&#x637;" horiz-adv-x="890" arabic-form="final" 
d="M77 0l-23 47h133v428h47v-428h391q30 0 55.5 15t40.5 40t15 55q0 46 -32.5 78.5t-78.5 32.5h-361l22 47h339q43 0 79.5 -21.5t57.5 -57.5t21 -79q0 -65 -46 -111t-112 -46h-548zM748 47h152v-47h-95q-27 0 -42 23z" />
    <glyph glyph-name="uni0638.init" unicode="&#x638;" horiz-adv-x="757" arabic-form="initial" 
d="M0 0v47h107v428h48v-428h391q45 0 77.5 32.5t32.5 78t-32.5 78t-77.5 32.5h-362l23 47h339q65 0 111 -46.5t46 -111.5t-46 -111t-111 -46h-546zM379 484q0 9 4.5 17.5t13 13t17.5 4.5q15 0 25.5 -10.5t10.5 -25t-10.5 -25t-25 -10.5t-25 10.5t-10.5 25.5z" />
    <glyph glyph-name="uni0638.medi" unicode="&#x638;" horiz-adv-x="811" arabic-form="medial" 
d="M0 0v47h107v428h48v-428h391q45 0 77.5 32.5t32.5 78t-32.5 78t-77.5 32.5h-362l23 47h339q65 0 111 -46.5t46 -111.5t-46 -111t-111 -46h-546zM379 484q0 9 4.5 17.5t13 13t17.5 4.5q15 0 25.5 -10.5t10.5 -25t-10.5 -25t-25 -10.5t-25 10.5t-10.5 25.5zM668 47h153v-47
h-95q-28 0 -43 23z" />
    <glyph glyph-name="uni0638.fina" unicode="&#x638;" horiz-adv-x="890" arabic-form="final" 
d="M77 0l-23 47h133v428h47v-428h391q30 0 55.5 15t40.5 40t15 55q0 46 -32.5 78.5t-78.5 32.5h-361l22 47h339q43 0 79.5 -21.5t57.5 -57.5t21 -79q0 -65 -46 -111t-112 -46h-548zM459 484q0 9 4.5 17.5t12.5 13t18 4.5q15 0 25.5 -10.5t10.5 -25t-10.5 -25t-25.5 -10.5
t-25 10.5t-10 25.5zM748 47h152v-47h-95q-27 0 -42 23z" />
    <glyph glyph-name="uni0639.init" unicode="&#x639;" horiz-adv-x="445" arabic-form="initial" 
d="M265 0h-1h-264v47h153q-46 46 -46 110q0 65 46.5 111.5t111.5 46.5h79v-47h-79q-46 0 -78.5 -32.5t-32.5 -78t32.5 -78t78.5 -32.5h126v-47h-126z" />
    <glyph glyph-name="uni0639.medi" unicode="&#x639;" horiz-adv-x="429" arabic-form="medial" 
d="M0 0v47h175q-53 38 -81 98l-53 114q80 48 173.5 48t173.5 -48l-53 -114q-28 -60 -81 -98h185v-47h-118q-56 0 -107 24q-50 -24 -107 -24h-107zM103 236l88 -189h46l89 189q-53 24 -111.5 24t-111.5 -24z" />
    <glyph glyph-name="uni0639.fina" unicode="&#x639;" horiz-adv-x="613" arabic-form="final" 
d="M235 -314q-75 0 -128 53t-53 127.5t53 127.5t128 53h56q-54 38 -82 98l-53 113q80 49 173.5 49t173.5 -49l-53 -113q-27 -60 -81 -98h254v-47h-186q-56 0 -107 24q-51 -24 -107 -24h12q-56 0 -95 -39t-39 -94.5t39 -94.5t95 -39h221v-47h-221zM218 236l89 -189h46l88 189
q-53 24 -111.5 24t-111.5 -24zM234 0h1h-1z" />
    <glyph glyph-name="uni063A.init" unicode="&#x63a;" horiz-adv-x="445" arabic-form="initial" 
d="M0 0v47h153q-46 46 -46 110q0 65 46.5 111.5t111.5 46.5h79v-47h-79q-46 0 -78.5 -32.5t-32.5 -78t32.5 -78t78.5 -32.5h126v-47h-391zM226 483.5q0 14.5 10.5 25t25 10.5t25 -10.5t10.5 -25t-10.5 -25t-25 -10.5t-25 10.5t-10.5 25z" />
    <glyph glyph-name="uni063A.medi" unicode="&#x63a;" horiz-adv-x="429" arabic-form="medial" 
d="M0 0v47h175q-53 38 -81 98l-53 114q80 48 173.5 48t173.5 -48l-53 -114q-28 -60 -81 -98h185v-47h-118q-56 0 -107 24q-50 -24 -107 -24h-107zM103 236l88 -189h46l89 189q-53 24 -111.5 24t-111.5 -24zM179 475.5q0 14.5 10.5 25t24.5 10.5q10 0 18 -4.5t13 -13t5 -17.5
q0 -15 -10.5 -25.5t-25 -10.5t-25 10.5t-10.5 25z" />
    <glyph glyph-name="uni063A.fina" unicode="&#x63a;" horiz-adv-x="613" arabic-form="final" 
d="M235 -314q-75 0 -128 53t-53 127.5t53 127.5t128 53h56q-54 38 -82 98l-53 113q80 49 173.5 49t173.5 -49l-53 -113q-27 -60 -81 -98h254v-47h-186q-56 0 -107 24q-51 -24 -107 -24h12q-56 0 -95 -39t-39 -94.5t39 -94.5t95 -39h221v-47h-221zM218 236l89 -189h46l88 189
q-53 24 -111.5 24t-111.5 -24zM234 0h1h-1zM294 476q0 14 10.5 24.5t25.5 10.5t25 -10.5t10 -25t-10 -25t-25 -10.5q-7 0 -14 3t-11.5 7.5t-7.5 11.5t-3 14z" />
    <glyph glyph-name="uni0641.init" unicode="&#x641;" horiz-adv-x="488" arabic-form="initial" 
d="M259 0h-259v47h147q-45 46 -45 110q0 65 46 111.5t111 46.5h178v-315h-178zM149 157q0 -45 32 -77.5t77 -32.5h132v221h-131q-46 0 -78 -32.5t-32 -78.5zM269 483.5q0 14.5 10.5 25t25 10.5t25 -10.5t10.5 -25t-10.5 -25t-25 -10.5t-25 10.5t-10.5 25z" />
    <glyph glyph-name="uni0641.medi" unicode="&#x641;" horiz-adv-x="539" arabic-form="medial" 
d="M259 0h-259v47h147q-45 46 -45 110q0 65 46 111.5t111 46.5h178v-268h112v-47h-290zM149 157q0 -45 32 -77.5t77 -32.5h132v221h-131q-46 0 -78 -32.5t-32 -78.5zM269 484q0 9 4.5 17.5t13 13t17.5 4.5q15 0 25.5 -10.5t10.5 -25t-10.5 -25t-25 -10.5t-25 10.5
t-10.5 25.5z" />
    <glyph glyph-name="uni0641.fina" unicode="&#x641;" horiz-adv-x="963" arabic-form="final" 
d="M209 0q-66 0 -112 46t-46 111t46 111.5t112 46.5h25v-47h-25q-46 0 -78.5 -32.5t-32.5 -78t32.5 -78t78.5 -32.5h363q-45 46 -45 110q0 65 46 111.5t111 46.5h177v-268h112v-47h-289h-1h-474zM574 157.5q0 -45.5 32 -78t77 -32.5h131v221h-130q-46 0 -78 -32.5t-32 -78z
M693 484q0 9 5 17.5t13 13t18 4.5q7 0 13.5 -2.5t11.5 -7.5t8 -11.5t3 -13.5q0 -15 -10.5 -25.5t-25.5 -10.5t-25.5 10.5t-10.5 25.5z" />
    <glyph glyph-name="uni0642.init" unicode="&#x642;" horiz-adv-x="488" arabic-form="initial" 
d="M259 0h-259v47h147q-45 46 -45 110q0 65 46 111.5t111 46.5h178v-315h-178zM149 157.5q0 -45.5 32 -78t78 -32.5h131v221h-131q-46 0 -78 -32.5t-32 -78zM201 484q0 9 5 17.5t13 13t17.5 4.5t18 -4.5t13 -13t4.5 -17.5q0 -15 -10.5 -25.5t-25 -10.5t-25 10.5t-10.5 25.5z
M336 484q0 9 5 17.5t13 13t18 4.5t18 -4.5t13 -13t5 -17.5q0 -15 -10.5 -25.5t-25.5 -10.5t-25.5 10.5t-10.5 25.5z" />
    <glyph glyph-name="uni0642.medi" unicode="&#x642;" horiz-adv-x="539" arabic-form="medial" 
d="M259 0h-259v47h147q-45 46 -45 110q0 65 46 111.5t111 46.5h178v-268h112v-47h-290zM149 157.5q0 -45.5 32 -78t78 -32.5h131v221h-131q-46 0 -78 -32.5t-32 -78zM201 483.5q0 14.5 10.5 25t25 10.5t25 -10.5t10.5 -25t-10.5 -25t-25 -10.5t-25 10.5t-10.5 25zM337 484
q0 9 4.5 17.5t12.5 13t18 4.5q15 0 25.5 -10.5t10.5 -25t-10.5 -25t-25.5 -10.5t-25 10.5t-10 25.5z" />
    <glyph glyph-name="uni0642.fina" unicode="&#x642;" horiz-adv-x="727" arabic-form="final" 
d="M338 -267q-119 0 -203 84t-84 203v74h47v-74q0 -66 32 -121t87.5 -87t120.5 -32q94 0 163 63.5t76 156.5h-130q-65 0 -111 46t-46 111t46 111.5t111 46.5h178v-268h112v-47h-113q-7 -112 -89.5 -189.5t-196.5 -77.5zM337 157q0 -45 32.5 -77.5t77.5 -32.5h131v221h-131
q-22 0 -42.5 -9t-35.5 -23.5t-23.5 -35t-8.5 -43.5zM389 483.5q0 14.5 10.5 25t25.5 10.5q9 0 17.5 -4.5t13 -13t4.5 -17.5q0 -15 -10.5 -25.5t-25 -10.5t-25 10.5t-10.5 25zM525 484q0 9 4.5 17.5t13 13t17.5 4.5q15 0 25.5 -10.5t10.5 -25t-10.5 -25t-25.5 -10.5t-25 10.5
t-10 25.5z" />
    <glyph glyph-name="uni0643.init" unicode="&#x643;" horiz-adv-x="751" arabic-form="initial" 
d="M0 0v47h542q46 0 78.5 32.5t32.5 78t-32.5 78t-78.5 32.5h-440l139 195q8 12 23 12h43l-114 -160h349q65 0 111.5 -46.5t46.5 -111.5t-46.5 -111t-111.5 -46h-542z" />
    <glyph glyph-name="uni0643.medi" unicode="&#x643;" horiz-adv-x="802" arabic-form="medial" 
d="M0 0v47h542q46 0 78.5 32.5t32.5 78t-32.5 78t-78.5 32.5h-440l139 195q8 12 23 12h43l-114 -160h349q65 0 111.5 -46.5t46.5 -111.5t-46.5 -111t-111.5 -46h-542zM664 47h148v-47h-90q-27 0 -42 23z" />
    <glyph glyph-name="uni0643.fina" unicode="&#x643;" horiz-adv-x="894" arabic-form="final" 
d="M209 0q-43 0 -79.5 21t-57.5 57.5t-21 78.5q0 65 46 111.5t112 46.5h25v-47h-25q-46 0 -78.5 -32.5t-32.5 -78t32.5 -78t78.5 -32.5h536v428h47v-428h112v-47h-695zM391 404v24h54q-23 23 -23 56q0 22 10.5 40.5t29 29.5t40.5 11h42v-23h-42q-23 0 -40 -17t-17 -40
q0 -16 7.5 -29t21 -20.5t28.5 -7.5h66v-24h-177z" />
    <glyph glyph-name="uni0644.init" unicode="&#x644;" horiz-adv-x="211" arabic-form="initial" 
d="M157 0h-157v47h110v428h47v-475z" />
    <glyph glyph-name="uni0644.medi" unicode="&#x644;" horiz-adv-x="264" arabic-form="medial" 
d="M0 0v47h35q30 0 51.5 21.5t21.5 51.5v355h47v-355q0 -50 -35 -85t-85 -35h-35zM141 47h133v-47h-75q-28 0 -43 23z" />
    <glyph glyph-name="uni0644.fina" unicode="&#x644;" horiz-adv-x="715" arabic-form="final" 
d="M341 -267q-119 0 -203 84t-84 203v74h47v-74q0 -100 70.5 -170t169.5 -70t169.5 70t70.5 170v455h47v-455q0 -119 -84 -203t-203 -84zM633 47h92v-47h-35q-27 0 -42 23z" />
    <glyph glyph-name="uni0645.init" unicode="&#x645;" horiz-adv-x="489" arabic-form="initial" 
d="M174 0l-22 47h128q46 0 78.5 32.5t32.5 78t-32.5 78t-78.5 32.5h-130v-156q0 -47 -33 -79.5t-79 -32.5h-38v47h38q27 0 46 19t19 46v203h178q65 0 111 -46.5t46 -111.5t-46 -111t-111 -46h-107z" />
    <glyph glyph-name="uni0645.medi" unicode="&#x645;" horiz-adv-x="540" arabic-form="medial" 
d="M174 0l-22 47h128q46 0 78.5 32.5t32.5 78t-32.5 78t-78.5 32.5h-130v-156q0 -47 -33 -79.5t-79 -32.5h-38v47h38q27 0 46 19t19 46v203h178q65 0 111 -46.5t46 -111.5t-46 -111t-111 -46h-107zM395 46h155v-47h-97q-27 0 -42 24z" />
    <glyph glyph-name="uni0645.fina" unicode="&#x645;" horiz-adv-x="701" arabic-form="final" 
d="M54 157q0 65 46 111.5t111 46.5h382v-178q0 -65 -46 -111t-111 -46t-111 46t-46 111v48l47 22v-70q0 -30 14.5 -55.5t40 -40t55.5 -14.5q46 0 78 32t32 78v131h-335q-45 0 -77.5 -32.5t-32.5 -78.5v-424h-47v424zM576 46h135v-47h-77q-28 0 -43 24z" />
    <glyph glyph-name="uni0646.init" unicode="&#x646;" horiz-adv-x="209" arabic-form="initial" 
d="M0 0v47h108v268h47v-315h-155zM96 483.5q0 9.5 5 18t13 13t18 4.5q14 0 24.5 -10.5t10.5 -24.5q0 -10 -4.5 -18t-13 -13t-18 -5t-17.5 5t-13 13t-5 17.5z" />
    <glyph glyph-name="uni0646.medi" unicode="&#x646;" horiz-adv-x="264" arabic-form="medial" 
d="M0 0v47h35q30 0 51.5 21.5t21.5 51.5v195h47v-195q0 -50 -35 -85t-85 -35h-35zM96 483.5q0 9.5 5 18t13 13t18 4.5q14 0 24.5 -10.5t10.5 -24.5q0 -10 -4.5 -18t-13 -13t-18 -5t-17.5 5t-13 13t-5 17.5zM141 47h133v-47h-75q-28 0 -43 23z" />
    <glyph glyph-name="uni0646.fina" unicode="&#x646;" horiz-adv-x="715" arabic-form="final" 
d="M341 -267q-119 0 -203 84t-84 203v74h47v-74q0 -66 32 -121t87.5 -87t120.5 -32q99 0 169.5 70t70.5 170v295h47v-295q0 -119 -84 -203t-203 -84zM305 324q0 10 5 18t13 13t18 5q15 0 25 -10.5t10 -25t-10 -25t-25 -10.5t-25.5 10.5t-10.5 24.5zM633 47h92v-47h-35
q-27 0 -42 23z" />
    <glyph glyph-name="uni0647.init" unicode="&#x647;" horiz-adv-x="688" arabic-form="initial" 
d="M590 252q0 46 -32.5 78.5t-78.5 32.5h-216l-22 47h238q65 0 111.5 -46.5t46.5 -111.5v-252h-47h-181l-22 47h203v205zM0 0v47h102v110q0 65 46 111.5t111 46.5t111 -46.5t46 -111.5t-46 -111t-111 -46h-110h-149zM149 47h110q46 0 78 32.5t32 78t-32 78t-78 32.5
t-78 -32.5t-32 -78.5v-110z" />
    <glyph glyph-name="uni0647.medi" unicode="&#x647;" horiz-adv-x="738" arabic-form="medial" 
d="M590 252q0 46 -32.5 78.5t-78.5 32.5h-216l-22 47h238q43 0 79 -21t57.5 -57.5t21.5 -79.5v-205h111v-47h-111h-47h-181l-22 47h203v205zM0 0v47h102v110q0 65 46 111.5t111 46.5t111 -46.5t46 -111.5t-46 -111t-111 -46h-110h-149zM149 47h110q46 0 78 32.5t32 78
t-32 78t-78 32.5t-78 -32.5t-32 -78.5v-110z" />
    <glyph glyph-name="uni0647.fina" unicode="&#x647;" horiz-adv-x="488" arabic-form="final" 
d="M209 0q-66 0 -112 46t-46 111t46 111t112 46h177v-47v-220h112v-47h-159v267h-130q-46 0 -78.5 -32t-32.5 -78t32.5 -78t78.5 -32h65l-22 -47h-43z" />
    <glyph glyph-name="uni0648.fina" unicode="&#x648;" horiz-adv-x="488" arabic-form="final" 
d="M209 0q-66 0 -112 46t-46 111t46 111.5t112 46.5h177v-268h112v-47h-112v-59q0 -86 -61 -147t-147 -61h-40l-23 47h63q67 0 114 47t47 114v59h-130zM98 157.5q0 -45.5 32.5 -78t78.5 -32.5h130v221h-130q-46 0 -78.5 -32.5t-32.5 -78z" />
    <glyph glyph-name="uni0649.init" unicode="&#x649;" horiz-adv-x="209" 
d="M0 0v47h108v268h47v-315h-155z" />
    <glyph glyph-name="uni0649.medi" unicode="&#x649;" horiz-adv-x="264" 
d="M0 0v47h35q30 0 51.5 21.5t21.5 51.5v195h47v-195q0 -50 -35 -85t-85 -35h-35zM141 47h133v-47h-75q-28 0 -43 23z" />
    <glyph glyph-name="uni0649.fina" unicode="&#x649;" horiz-adv-x="1041" arabic-form="final" 
d="M211 0q-65 0 -111 46t-46 111t46 111.5t111 46.5h123v-47h-123q-45 0 -77.5 -32.5t-32.5 -78t32.5 -78t77.5 -32.5h448v110q0 43 21 79t57.5 57.5t79.5 21.5h122v-268h112v-47h-159v268h-75q-46 0 -78.5 -32.5t-32.5 -78.5v-110v-47h-495z" />
    <glyph glyph-name="uni064A.init" unicode="&#x64a;" horiz-adv-x="296" arabic-form="initial" 
d="M0 0v47h195v268h47v-315h-242zM48 -144.5q0 14.5 10.5 25t24.5 10.5q10 0 18 -4.5t13 -13t5 -17.5q0 -15 -10.5 -25.5t-25 -10.5t-25 10.5t-10.5 25zM183 -144.5q0 14.5 10.5 25t25 10.5t25 -10.5t10.5 -24.5q0 -10 -4.5 -18t-13 -13t-17.5 -5q-15 0 -25.5 10.5t-10.5 25
z" />
    <glyph glyph-name="uni064A.medi" unicode="&#x64a;" horiz-adv-x="350" arabic-form="medial" 
d="M0 0v47h122q30 0 51.5 21.5t21.5 51.5v195h47v-195q0 -19 -6 -37.5t-17 -33.5t-26 -26t-33.5 -17t-37.5 -6h-122zM47 -144.5q0 14.5 10.5 25t25.5 10.5t25.5 -10.5t10.5 -25t-10.5 -25t-25.5 -10.5t-25.5 10.5t-10.5 25zM183 -144.5q0 14.5 10.5 25t25 10.5t25 -10.5
t10.5 -25t-10.5 -25t-25 -10.5t-25 10.5t-10.5 25zM228 47h134v-47h-77q-27 0 -42 23z" />
    <glyph glyph-name="uni064A.fina" unicode="&#x64a;" horiz-adv-x="1041" arabic-form="final" 
d="M211 0q-65 0 -111 46t-46 111t46 111.5t111 46.5h123v-47h-123q-45 0 -77.5 -32.5t-32.5 -78t32.5 -78t77.5 -32.5h448v110q0 43 21 79t57.5 57.5t79.5 21.5h122v-268h112v-47h-159v268h-75q-46 0 -78.5 -32.5t-32.5 -78.5v-110v-47h-495zM453 -144.5q0 14.5 10 25
t25 10.5q6 0 11.5 -1.5t9.5 -5t7.5 -8t5.5 -9.5t2 -11q0 -15 -10.5 -25.5t-25.5 -10.5t-25 10.5t-10 25zM588 -144q0 9 5 17.5t13 13t18 4.5q14 0 24.5 -10.5t10.5 -25t-10.5 -25t-25 -10.5t-25 10.5t-10.5 25.5z" />
    <glyph glyph-name="uni067E.init" unicode="&#x67e;" horiz-adv-x="296" arabic-form="initial" 
d="M0 0v47h195v268h47v-315h-242zM48 -144.5q0 14.5 10.5 25t24.5 10.5q10 0 18 -4.5t13 -13t5 -17.5q0 -15 -10.5 -25.5t-25 -10.5t-25 10.5t-10.5 25zM116 -227.5q0 14.5 10 25t25 10.5t25.5 -10.5t10.5 -25t-10.5 -25t-25.5 -10.5t-25 10.5t-10 25zM183 -144.5
q0 14.5 10.5 25t25 10.5t25 -10.5t10.5 -24.5q0 -10 -4.5 -18t-13 -13t-17.5 -5q-15 0 -25.5 10.5t-10.5 25z" />
    <glyph glyph-name="uni067E.medi" unicode="&#x67e;" horiz-adv-x="350" arabic-form="medial" 
d="M0 0v47h122q30 0 51.5 21.5t21.5 51.5v195h47v-195q0 -19 -6 -37.5t-17 -33.5t-26 -26t-33.5 -17t-37.5 -6h-122zM47 -144.5q0 14.5 10.5 25t25.5 10.5t25.5 -10.5t10.5 -25t-10.5 -25t-25.5 -10.5t-25.5 10.5t-10.5 25zM115 -227.5q0 14.5 10.5 25t25 10.5t25 -10.5
t10.5 -25t-10.5 -25t-25 -10.5t-25 10.5t-10.5 25zM183 -144.5q0 14.5 10.5 25t25 10.5t25 -10.5t10.5 -25t-10.5 -25t-25 -10.5t-25 10.5t-10.5 25zM228 47h134v-47h-77q-27 0 -42 23z" />
    <glyph glyph-name="uni067E.fina" unicode="&#x67e;" horiz-adv-x="815" arabic-form="final" 
d="M211 0q-42 0 -78.5 21t-57.5 57.5t-21 78.5q0 65 46 111.5t111 46.5h25v-47h-25q-45 0 -77.5 -32.5t-32.5 -78t32.5 -78t77.5 -32.5h376q30 0 51.5 21.5t21.5 51.5v195h47v-195q0 -49 -35 -84.5t-85 -35.5h-376zM333 -144.5q0 14.5 10.5 25t25.5 10.5q9 0 17.5 -4.5
t13 -13t4.5 -17.5q0 -15 -10.5 -25.5t-25 -10.5t-25 10.5t-10.5 25zM401 -228q0 15 10.5 25.5t25 10.5t25 -10.5t10.5 -25.5t-10.5 -25t-25 -10t-25 10t-10.5 25zM469 -144.5q0 14.5 10.5 25t25 10.5t25 -10.5t10.5 -25t-10.5 -25t-25 -10.5t-25 10.5t-10.5 25zM693 47h132
v-47h-74q-28 0 -43 23z" />
    <glyph glyph-name="uni06A4.init" unicode="&#x6a4;" horiz-adv-x="488" arabic-form="initial" 
d="M259 0h-259v47h147q-45 46 -45 110q0 65 46 111.5t111 46.5h178v-315h-178zM149 157.5q0 -45.5 32 -78t78 -32.5h131v221h-131q-46 0 -78 -32.5t-32 -78zM201 484q0 9 5 17.5t13 13t17.5 4.5t18 -4.5t13 -13t4.5 -17.5q0 -15 -10.5 -25.5t-25 -10.5t-25 10.5t-10.5 25.5z
M269 604.5q0 14.5 10.5 25t24.5 10.5q10 0 18 -4.5t13 -13t5 -17.5q0 -15 -10.5 -25.5t-25 -10.5t-25 10.5t-10.5 25zM336 483.5q0 14.5 10.5 25t25.5 10.5q10 0 18 -4.5t13 -13t5 -17.5q0 -15 -10.5 -25.5t-25.5 -10.5t-25.5 10.5t-10.5 25z" />
    <glyph glyph-name="uni06A4.medi" unicode="&#x6a4;" horiz-adv-x="539" arabic-form="medial" 
d="M259 0h-259v47h147q-45 46 -45 110q0 65 46 111.5t111 46.5h178v-268h112v-47h-290zM149 157.5q0 -45.5 32 -78t78 -32.5h131v221h-131q-46 0 -78 -32.5t-32 -78zM201 484q0 14 10.5 24.5t25 10.5t25 -10.5t10.5 -25t-10.5 -25t-24.5 -10.5q-10 0 -18 5t-13 13t-5 18z
M269 605q0 14 10 24.5t25 10.5t25.5 -10.5t10.5 -25t-10.5 -25t-25.5 -10.5q-9 0 -17.5 5t-13 13t-4.5 18zM337 484q0 9 4.5 17.5t12.5 13t18 4.5q15 0 25.5 -10.5t10.5 -25t-10.5 -25t-25.5 -10.5t-25 10.5t-10 25.5z" />
    <glyph glyph-name="uni06A4.fina" unicode="&#x6a4;" horiz-adv-x="963" arabic-form="final" 
d="M209 0q-66 0 -112 46t-46 111t46 111.5t112 46.5h25v-47h-25q-46 0 -78.5 -32.5t-32.5 -78t32.5 -78t78.5 -32.5h363q-45 46 -45 110q0 65 46 111.5t111 46.5h177v-268h112v-47h-289h-475zM574 157.5q0 -45.5 32 -78t77 -32.5h131v221h-130q-46 0 -78 -32.5t-32 -78z
M626 484q0 9 4.5 17.5t13 13t17.5 4.5q15 0 25.5 -10.5t10.5 -25t-10.5 -25t-25 -10.5t-25 10.5t-10.5 25.5zM693 604.5q0 14.5 10.5 25t25.5 10.5t25.5 -10.5t10.5 -25t-10.5 -25t-25.5 -10.5t-25.5 10.5t-10.5 25zM761 484q0 9 5 17.5t13 13t18 4.5q14 0 24.5 -10.5
t10.5 -25t-10.5 -25t-25 -10.5t-25 10.5t-10.5 25.5z" />
    <glyph glyph-name="uni06CC.init" unicode="&#x6cc;" horiz-adv-x="296" arabic-form="initial" 
d="M0 0v47h195v268h47v-315h-242zM48 -144.5q0 14.5 10.5 25t24.5 10.5q10 0 18 -4.5t13 -13t5 -17.5q0 -15 -10.5 -25.5t-25 -10.5t-25 10.5t-10.5 25zM183 -144.5q0 14.5 10.5 25t25 10.5t25 -10.5t10.5 -24.5q0 -10 -4.5 -18t-13 -13t-17.5 -5q-15 0 -25.5 10.5t-10.5 25
z" />
    <glyph glyph-name="uni06CC.medi" unicode="&#x6cc;" horiz-adv-x="350" arabic-form="medial" 
d="M0 0v47h122q30 0 51.5 21.5t21.5 51.5v195h47v-195q0 -19 -6 -37.5t-17 -33.5t-26 -26t-33.5 -17t-37.5 -6h-122zM47 -144.5q0 14.5 10.5 25t25.5 10.5t25.5 -10.5t10.5 -25t-10.5 -25t-25.5 -10.5t-25.5 10.5t-10.5 25zM183 -144.5q0 14.5 10.5 25t25 10.5t25 -10.5
t10.5 -25t-10.5 -25t-25 -10.5t-25 10.5t-10.5 25zM228 47h134v-47h-77q-27 0 -42 23z" />
    <glyph glyph-name="uni06CC.fina" unicode="&#x6cc;" horiz-adv-x="1041" arabic-form="final" 
d="M211 0q-65 0 -111 46t-46 111t46 111.5t111 46.5h123v-47h-123q-45 0 -77.5 -32.5t-32.5 -78t32.5 -78t77.5 -32.5h448v110q0 43 21 79t57.5 57.5t79.5 21.5h122v-268h112v-47h-159v268h-75q-46 0 -78.5 -32.5t-32.5 -78.5v-110v-47h-495z" />
    <glyph glyph-name="uni0651064F" unicode="&#xfc61;" arabic-form="isolated" 
d="M94 732q-4 16 4 30.5t24 19t30.5 -3.5t19 -24t-3.5 -30.5t-24 -18.5l-25 -7l4 -14l-14 -4l-4 14l-86 -24v15l82 23zM19 607l-1 39h14v-40q0 -11 7.5 -18.5t18.5 -7.5t18.5 7.5t7.5 18.5v40h14v-40q0 -11 7.5 -18.5t18.5 -7.5t18.5 7.5t7.5 18.5v40h14v-40
q0 -17 -11.5 -28.5t-27.5 -10.5q-21 0 -33 17q-12 -17 -33 -17q-11 0 -20.5 5t-14.5 14.5t-5 20.5zM107 736l7 -25l25 7q11 3 16 12t2 19.5t-12 15.5t-19.5 2.5t-15.5 -12t-3 -19.5z" />
    <glyph glyph-name="uni0627064B.fina" unicode="&#xfd3c;" horiz-adv-x="244" arabic-form="final" 
d="M89 0v475h47v-428h118v-47h-165zM86 513v16l146 40v-16zM86 572v16l146 41v-17z" />
    <glyph glyph-name="uni0628.fina" unicode="&#x628;" horiz-adv-x="815" arabic-form="final" 
d="M211 0q-42 0 -78.5 21t-57.5 57.5t-21 78.5q0 65 46 111.5t111 46.5h25v-47h-25q-45 0 -77.5 -32.5t-32.5 -78t32.5 -78t77.5 -32.5h376q30 0 51.5 21.5t21.5 51.5v195h47v-195q0 -49 -35 -84.5t-85 -35.5h-376zM401 -144q0 15 10.5 25t25 10t25 -10t10.5 -25
t-10.5 -25.5t-25.5 -10.5q-7 0 -13.5 3t-11 8t-7.5 11.5t-3 13.5zM693 47h132v-47h-74q-28 0 -43 23z" />
    <glyph glyph-name="uni0628.init" unicode="&#x628;" horiz-adv-x="209" arabic-form="initial" 
d="M0 0v47h108v268h47v-315h-155zM96 -144q0 9 5 17.5t13 13t18 4.5q14 0 24.5 -10.5t10.5 -24.5q0 -10 -4.5 -18t-13 -13t-17.5 -5q-15 0 -25.5 10.5t-10.5 25.5z" />
    <glyph glyph-name="uni0628.medi" unicode="&#x628;" horiz-adv-x="264" arabic-form="medial" 
d="M0 0v47h35q30 0 51.5 21.5t21.5 51.5v195h47v-195q0 -50 -35 -85t-85 -35h-35zM96 -144.5q0 14.5 10.5 25t25 10.5t25 -10.5t10.5 -24.5q0 -10 -4.5 -18t-13 -13t-17.5 -5q-15 0 -25.5 10.5t-10.5 25zM141 47h133v-47h-75q-28 0 -43 23z" />
    <glyph glyph-name=".notdef" horiz-adv-x="293" 
d="M241 0h-190v498h190v-498zM77 69l56 178l-56 178v-356zM89 472l57 -182l57 182h-114zM90 26h112l-56 178zM160 247l56 -178v356z" />
    <glyph glyph-name=".null" horiz-adv-x="292" 
d="M210 0l-64 204l-64 -204l-24 8l75 239l-76 243l24 8l65 -208l65 208l25 -8l-76 -243l75 -239z" />
    <glyph glyph-name="nonmarkingreturn" horiz-adv-x="453" 
 />
    <glyph glyph-name="space" unicode=" " horiz-adv-x="180" 
 />
    <glyph glyph-name="space" unicode="&#xa0;" horiz-adv-x="180" 
 />
    <glyph glyph-name="exclam" unicode="!" horiz-adv-x="150" 
d="M51 98v377h47v-377h-47zM45 25.5q0 12.5 8.5 21.5t21 9t21.5 -9t9 -21.5t-9 -21.5t-21.5 -9t-21 9t-8.5 21.5z" />
    <glyph glyph-name="quotedbl" unicode="&#x22;" horiz-adv-x="264" 
d="M102 559l-7 -242h-47l-7 242h61zM162 559h61l-6 -242h-48z" />
    <glyph glyph-name="percent" unicode="%" horiz-adv-x="800" 
 />
    <glyph glyph-name="quotesingle" unicode="'" horiz-adv-x="143" 
d="M102 559l-7 -242h-47l-7 242h61z" />
    <glyph glyph-name="parenleft" unicode="(" horiz-adv-x="171" 
d="M94 -26q-43 128 -43 263t43 264l53 -17q-41 -120 -41 -246.5t41 -247.5z" />
    <glyph glyph-name="parenright" unicode=")" horiz-adv-x="171" 
d="M24 -10q41 121 41 247.5t-41 246.5l53 17q42 -129 42 -264t-42 -263z" />
    <glyph glyph-name="asterisk" unicode="*" horiz-adv-x="378" 
d="M298 61l-86 57l6 -103h-58l6 103l-85 -57l-30 51l93 45l-93 46l30 51l85 -57l-6 102h58l-6 -102l86 57l29 -51l-92 -46l92 -45z" />
    <glyph glyph-name="plus" unicode="+" horiz-adv-x="368" 
d="M155 24v104h-104v59h104v103h58v-103h104v-59h-104v-104h-58z" />
    <glyph glyph-name="comma" unicode="," horiz-adv-x="169" 
d="M47 -49q4 60 4 108h63q-2 -65 -14 -134z" />
    <glyph glyph-name="hyphen" unicode="-" horiz-adv-x="368" 
d="M317 187v-59h-266v59h266z" />
    <glyph glyph-name="period" unicode="." horiz-adv-x="102" 
d="M51 0q-14 0 -24 10t-10 24.5t10 24.5t24 10t24 -10t10.5 -24.5t-10 -24.5t-24.5 -10z" />
    <glyph glyph-name="slash" unicode="/" horiz-adv-x="291" 
d="M265 475l-180 -475h-59l180 475h59z" />
    <glyph glyph-name="zero" unicode="0" horiz-adv-x="445" 
d="M332 323q0 45 -32.5 77t-77.5 32q-29 0 -54.5 -14.5t-40 -39.5t-14.5 -55v-171q0 -45 32 -77.5t77 -32.5t77.5 32.5t32.5 77.5v171zM59 152v171q0 67 48 115t115 48q45 0 82.5 -21.5t59.5 -59.5t22 -82v-171q0 -68 -48 -116t-115.5 -48t-115.5 48t-48 116z" />
    <glyph glyph-name="one" unicode="1" horiz-adv-x="246" 
d="M189 475v-475h-52v401l-85 -55l-30 45l133 84h34z" />
    <glyph glyph-name="two" unicode="2" horiz-adv-x="439" 
d="M74 0v55l217 183q40 33 40 85q0 45 -32 77t-77.5 32t-77.5 -32t-32 -77v-29h-55v29q0 67 48 115t115 48t114.5 -47.5t47.5 -113.5q0 -75 -58 -124l-173 -146h231v-55h-308z" />
    <glyph glyph-name="three" unicode="3" horiz-adv-x="344" 
d="M42 0v55h110q19 0 36 7.5t29.5 20t20 30t7.5 36.5q0 38 -27.5 65.5t-65.5 27.5h-78l128 177h-160v56h228l12 -42l-101 -139q52 -10 85.5 -51t33.5 -94q0 -62 -43.5 -105.5t-104.5 -43.5h-110z" />
    <glyph glyph-name="four" unicode="4" horiz-adv-x="431" 
d="M322 431h53v-431h-53v176h-265v55l118 244h62l-118 -244h203v200z" />
    <glyph glyph-name="five" unicode="5" horiz-adv-x="361" 
d="M57 475h254v-56h-202v-112h76q42 0 77 -20.5t55.5 -56t20.5 -76.5q0 -64 -45 -109t-108 -45h-128v55h128q41 0 69.5 29t28.5 69.5t-28.5 69.5t-69.5 29h-128v55v112v56z" />
    <glyph glyph-name="six" unicode="6" horiz-adv-x="420" 
d="M210 4q-69 0 -117.5 49t-48.5 118q0 37 24 87l113 233h62l-85 -175q29 12 61 12q65 0 111 -46t46 -111q0 -69 -48.5 -118t-117.5 -49zM99 171q0 -46 32.5 -78.5t78.5 -32.5t78.5 32.5t32.5 78.5q0 22 -8.5 42.5t-23.5 35.5t-35.5 24t-43.5 9q-46 0 -78.5 -32.5
t-32.5 -78.5z" />
    <glyph glyph-name="seven" unicode="7" horiz-adv-x="332" 
d="M310 475v-35l-214 -440h-61l204 419h-215v56h286z" />
    <glyph glyph-name="eight" unicode="8" horiz-adv-x="360" 
d="M180 -12q-64 0 -110 46t-46 110q0 41 20 76.5t54 56.5q-39 36 -39 89q0 49 35.5 84.5t85.5 35.5q32 0 60 -16t44 -44t16 -60q0 -53 -38 -89q34 -21 54 -56t20 -77q0 -64 -46 -110t-110 -46zM79 144q0 -41 29.5 -70.5t71 -29.5t71 29.5t29.5 71t-29.5 71t-70.5 29.5
q-27 0 -50.5 -13.5t-37 -36.5t-13.5 -51zM114 366q0 -18 9 -33t24 -24t33 -9q27 0 46 19t19 46.5t-19 46.5t-46 19t-46.5 -19t-19.5 -46z" />
    <glyph glyph-name="nine" unicode="9" horiz-adv-x="420" 
d="M177 0l85 174q-29 -12 -61 -12q-65 0 -111 46.5t-46 111.5q0 69 48.5 117.5t117.5 48.5t117.5 -48.5t48.5 -117.5q0 -37 -24 -87l-113 -233h-62zM99 320q0 -46 32.5 -78.5t78.5 -32.5t78.5 32.5t32.5 78.5t-32.5 78.5t-78.5 32.5t-78.5 -32.5t-32.5 -78.5z" />
    <glyph glyph-name="colon" unicode=":" horiz-adv-x="174" 
d="M87 189q-15 0 -25.5 10.5t-10.5 25.5q0 9 5 17.5t13 13t18 4.5q15 0 25 -10.5t10 -24.5q0 -10 -4.5 -18t-13 -13t-17.5 -5zM51 90q0 7 3 13.5t7.5 11.5t11.5 7.5t14 2.5q9 0 17.5 -4.5t13 -13t4.5 -17.5q0 -15 -10 -25.5t-25 -10.5t-25.5 10.5t-10.5 25.5z" />
    <glyph glyph-name="semicolon" unicode=";" horiz-adv-x="165" 
d="M47 -49q4 60 4 108h61q-2 -65 -14 -134zM51 133v58h59v-58h-59z" />
    <glyph glyph-name="equal" unicode="=" horiz-adv-x="440" 
d="M389 251v-59h-338v59h338zM51 64v58h338v-58h-338z" />
    <glyph glyph-name="bracketleft" unicode="[" horiz-adv-x="228" 
d="M190 613v-61h-91v-629h91v-61h-151v751h151z" />
    <glyph glyph-name="backslash" unicode="\" horiz-adv-x="291" 
d="M26 475h59l180 -475h-59z" />
    <glyph glyph-name="bracketright" unicode="]" horiz-adv-x="228" 
d="M39 613h151v-751h-151v61h90v629h-90v61z" />
    <glyph glyph-name="underscore" unicode="_" horiz-adv-x="384" 
d="M389 -30v-59h-338v59h338z" />
    <glyph glyph-name="braceleft" unicode="{" horiz-adv-x="212" 
d="M137 -72q-19 34 -27.5 66.5t-16.5 93.5q-5 34 -8.5 53t-12 46.5t-21.5 49.5q10 17 17 35t11.5 39.5t7 36t6.5 39.5q6 42 9.5 62.5t12 47t22.5 50.5l48 -13q-31 -59 -41 -149q-10 -88 -40 -148q30 -60 40 -147q10 -90 41 -149z" />
    <glyph glyph-name="bar" unicode="|" horiz-adv-x="164" 
d="M105 664v-975h-47v975h47z" />
    <glyph glyph-name="braceright" unicode="}" horiz-adv-x="220" 
d="M34 -59q31 59 41 149q10 87 41 147q-31 60 -41 148q-10 90 -41 149l48 13q14 -24 22.5 -50.5t12.5 -47t10 -62.5q4 -34 7.5 -53t12.5 -47t21 -50q-12 -22 -21 -49.5t-12.5 -46.5t-7.5 -53q-6 -42 -10 -62.5t-12.5 -47t-22.5 -50.5z" />
    <glyph glyph-name="guillemotleft" unicode="&#xab;" horiz-adv-x="277" 
d="M260 315l-70 -158l70 -157h-52l-71 157l71 158h52zM17 157l70 158h53l-71 -158l71 -157h-53z" />
    <glyph glyph-name="periodcentered" unicode="&#xb7;" horiz-adv-x="102" 
d="M51 50q-7 0 -13.5 2.5t-11 7.5t-7 11t-2.5 13q0 15 10 25t24 10t24 -10t11 -25q0 -9 -5 -17t-13 -12.5t-17 -4.5z" />
    <glyph glyph-name="guillemotright" unicode="&#xbb;" horiz-adv-x="277" 
d="M137 315h53l70 -158l-70 -157h-53l71 157zM17 0l70 157l-70 158h52l71 -158l-71 -157h-52z" />
    <glyph glyph-name="uni060C" unicode="&#x60c;" horiz-adv-x="157" 
d="M51 0q2 65 14 134l53 -26q-4 -60 -4 -108h-63z" />
    <glyph glyph-name="uni061B" unicode="&#x61b;" horiz-adv-x="153" 
d="M49 133q2 65 14 134l51 -27q-4 -60 -4 -107h-61zM51 0v59h59v-59h-59z" />
    <glyph glyph-name="uni061F" unicode="&#x61f;" horiz-adv-x="364" 
d="M182 214q-54 0 -92.5 38t-38.5 92t38.5 92.5t92.5 38.5h131v-47h-131q-35 0 -59.5 -24.5t-24.5 -59t24.5 -59t59.5 -24.5h131v-47v-112h-47v112h-84zM259 25q0 7 2.5 12.5t6.5 9.5t9.5 6.5t11.5 2.5q13 0 21.5 -9t8.5 -21.5t-8.5 -21.5t-21 -9t-21.5 9t-9 21z" />
    <glyph glyph-name="uni0621" unicode="&#x621;" horiz-adv-x="356" 
d="M41 0v37h83q-36 37 -36 88t36.5 87.5t88.5 36.5h66v-37h-66q-36 0 -61.5 -25.5t-25.5 -62t25.5 -62t61.5 -25.5h103v-37h-275z" />
    <glyph glyph-name="uni0622" unicode="&#x622;" horiz-adv-x="225" 
d="M89 0v475h47v-475h-47zM43 492v2v-2zM43 494l28 3v4q0 4 3 7.5t8 3.5h62q14 0 25 9t13 24q1 2 1 5v-5h-29v-4q0 -4 -3 -7.5t-7 -3.5h-62q-16 0 -27 -10.5t-12 -25.5z" />
    <glyph glyph-name="uni0623" unicode="&#x623;" horiz-adv-x="211" 
d="M81 0v475h47v-475h-47zM8 513v19h42q-18 18 -18 44t18.5 44.5t44.5 18.5h33v-19h-33q-18 0 -31 -12.5t-13 -31t13 -31.5t31 -13h52v-19h-139z" />
    <glyph glyph-name="uni0624" unicode="&#x624;" horiz-adv-x="437" 
d="M209 0q-66 0 -112 46t-46 111t46 111.5t112 46.5h177v-315v-59q0 -86 -61 -147t-147 -61h-40l-23 47h63q67 0 114 47t47 114v59h-130zM98 157.5q0 -45.5 32.5 -78t78.5 -32.5h130v221h-130q-46 0 -78.5 -32.5t-32.5 -78zM169 378v24h55q-24 23 -24 56.5t23.5 57
t56.5 23.5h43v-23h-43q-23 0 -40 -17t-17 -40.5t17 -40t40 -16.5h67v-24h-67h-111z" />
    <glyph glyph-name="uni0625" unicode="&#x625;" horiz-adv-x="211" 
d="M81 0v475h47v-475h-47zM8 -174v18h42q-18 19 -18 45t18.5 44.5t44.5 18.5h33v-19h-33q-12 0 -22 -6t-16 -16t-6 -22q0 -19 13 -32t31 -13h52v-18h-139z" />
    <glyph glyph-name="uni0626" unicode="&#x626;" horiz-adv-x="987" 
d="M209 0q-65 0 -111.5 46t-46.5 111t46.5 111.5t111.5 46.5h122v-47h-122q-46 0 -78.5 -32.5t-32.5 -78t32.5 -78t78.5 -32.5h447v110q0 43 21.5 79t57.5 57.5t79 21.5h122v-315h-47v268h-75q-46 0 -78.5 -32.5t-32.5 -78.5v-110v-47h-494zM153 378v23h55q-24 24 -24 57.5
t23.5 57t57.5 23.5h42v-23h-42q-16 0 -29 -8t-21 -21t-8 -28q0 -24 17 -41t41 -17h66v-23h-66h-1h-111z" />
    <glyph glyph-name="uni0627" unicode="&#x627;" horiz-adv-x="225" 
d="M89 0v475h47v-475h-47z" />
    <glyph glyph-name="uni0628" unicode="&#x628;" horiz-adv-x="761" 
d="M211 0q-65 0 -111 46t-46 111t46 111.5t111 46.5h25v-47h-25q-45 0 -77.5 -32.5t-32.5 -78t32.5 -78t77.5 -32.5h449v268h47v-315h-496zM401 -151.5q0 14.5 10.5 25t25 10.5t25 -10.5t10.5 -25t-10.5 -25t-25 -10.5t-25 10.5t-10.5 25z" />
    <glyph glyph-name="uni0629" unicode="&#x629;" horiz-adv-x="438" 
d="M209 0q-66 0 -112 46t-46 111t46 111.5t112 46.5h177v-315h-177zM98 157.5q0 -45.5 32.5 -78t78.5 -32.5h130v221h-130q-46 0 -78.5 -32.5t-32.5 -78zM150 484q0 14 10.5 24.5t25.5 10.5t25.5 -10.5t10.5 -24.5q0 -10 -5 -18t-13 -13t-18 -5t-18 5t-13 13t-5 18zM286 484
q0 9 5 17.5t13 13t18 4.5q7 0 13.5 -2.5t11 -7.5t7.5 -11.5t3 -13.5q0 -15 -10.5 -25.5t-25 -10.5t-25 10.5t-10.5 25.5z" />
    <glyph glyph-name="uni062A" unicode="&#x62a;" horiz-adv-x="761" 
d="M211 0q-42 0 -78.5 21t-57.5 57.5t-21 78.5q0 65 46 111.5t111 46.5h25v-47h-25q-45 0 -77.5 -32.5t-32.5 -78t32.5 -78t77.5 -32.5h449v268h47v-315h-496zM333 484q0 14 10.5 24.5t25.5 10.5q9 0 17.5 -4.5t13 -13t4.5 -17.5q0 -15 -10.5 -25.5t-24.5 -10.5q-10 0 -18 5
t-13 13t-5 18zM469 484q0 14 10.5 24.5t25 10.5t25 -10.5t10.5 -25t-10.5 -25t-25.5 -10.5q-9 0 -17.5 5t-13 13t-4.5 18z" />
    <glyph glyph-name="uni062B" unicode="&#x62b;" horiz-adv-x="761" 
d="M211 0q-65 0 -111 46t-46 111t46 111.5t111 46.5h25v-47h-25q-45 0 -77.5 -32.5t-32.5 -78.5q0 -45 32.5 -77.5t77.5 -32.5h449v268h47v-315h-496zM333 484q0 14 10.5 24.5t25.5 10.5q9 0 17.5 -4.5t13 -13t4.5 -17.5q0 -15 -10.5 -25.5t-24.5 -10.5q-10 0 -18 5t-13 13
t-5 18zM401 605q0 9 4.5 17.5t13 13t18 4.5t17.5 -4.5t13 -13t5 -17.5q0 -15 -10.5 -25.5t-25 -10.5t-25 10.5t-10.5 25.5zM469 483.5q0 14.5 10.5 25t25 10.5t25 -10.5t10.5 -25t-10.5 -25t-25 -10.5t-25 10.5t-10.5 25z" />
    <glyph glyph-name="uni062C" unicode="&#x62c;" horiz-adv-x="649" 
d="M54 -110q0 65 46 111t111 46h337v110q0 46 -32.5 78.5t-77.5 32.5h-219q-17 0 -24 14l-15 33h258q65 0 111 -46.5t46 -111.5v-110v-47h-384q-45 0 -77.5 -32.5t-32.5 -77.5q0 -44 30 -76t74 -34l-21 -45q-56 10 -93 53.5t-37 101.5zM397 -144q0 10 5 18t13 12.5t18 4.5
q14 0 24.5 -10t10.5 -25t-10.5 -25.5t-24.5 -10.5q-10 0 -18 5t-13 13t-5 18z" />
    <glyph glyph-name="uni062D" unicode="&#x62d;" horiz-adv-x="649" 
d="M54 -110q0 65 46 111t111 46h337v110q0 46 -32.5 78.5t-77.5 32.5h-219q-17 0 -24 14l-15 33h258q65 0 111 -46.5t46 -111.5v-110v-47h-384q-45 0 -77.5 -32.5t-32.5 -77.5q0 -44 30 -76t74 -34l-21 -45q-56 10 -93 53.5t-37 101.5z" />
    <glyph glyph-name="uni062E" unicode="&#x62e;" horiz-adv-x="649" 
d="M54 -110q0 65 46 111t111 46h337v110q0 46 -32.5 78.5t-77.5 32.5h-219q-17 0 -24 14l-15 33h258q65 0 111 -46.5t46 -111.5v-110v-47h-384q-45 0 -77.5 -32.5t-32.5 -77.5q0 -44 30 -76t74 -34l-21 -45q-56 10 -93 53.5t-37 101.5zM313 484q0 9 5 17.5t13 13t18 4.5
q7 0 13.5 -2.5t11.5 -7.5t7.5 -11.5t2.5 -13.5q0 -15 -10 -25.5t-25 -10.5t-25.5 10.5t-10.5 25.5z" />
    <glyph glyph-name="uni062F" unicode="&#x62f;" horiz-adv-x="464" 
d="M363 157q0 46 -32 78.5t-78 32.5h-101q-17 0 -24 14l-15 33h140q65 0 111 -46.5t46 -111.5v-157h-47h-309v47h309v110z" />
    <glyph glyph-name="uni0630" unicode="&#x630;" horiz-adv-x="464" 
d="M363 157q0 46 -32 78.5t-78 32.5h-101q-17 0 -24 14l-15 33h140q65 0 111 -46.5t46 -111.5v-157h-47h-309v47h309v110zM138 483.5q0 14.5 10.5 25t25 10.5t25 -10.5t10.5 -25t-10.5 -25t-25 -10.5t-25 10.5t-10.5 25z" />
    <glyph glyph-name="uni0631" unicode="&#x631;" horiz-adv-x="245" 
d="M48 -267h-25l-23 47h48q40 0 68 28t28 68v439h47v-439q0 -59 -42 -101t-101 -42z" />
    <glyph glyph-name="uni0632" unicode="&#x632;" horiz-adv-x="245" 
d="M23 -267l-23 47h48q40 0 68 28t28 68v439h47v-439q0 -60 -42 -101.5t-101 -41.5h-25zM132 484q0 5 1.5 10.5t5 10t8 8t9.5 5t11 1.5q7 0 14 -2.5t11.5 -7.5t7.5 -11.5t3 -13.5q0 -15 -10.5 -25.5t-25 -10.5t-25 10.5t-10.5 25.5z" />
    <glyph glyph-name="uni0633" unicode="&#x633;" horiz-adv-x="1230" 
d="M341 -269q-119 0 -203 84t-84 203v76h47v-76q0 -100 70.5 -170t169.5 -70t169.5 70t70.5 170v297h47v-268h132q39 0 67 28t28 67v173h47v-173q0 -55 -36 -95h168q40 0 67.5 28t27.5 67v173h47v-173q0 -59 -41.5 -100.5t-100.5 -41.5h-177l-13 27q-38 -27 -84 -27h-133
q-7 -113 -89.5 -191t-196.5 -78z" />
    <glyph glyph-name="uni0634" unicode="&#x634;" horiz-adv-x="1230" 
d="M341 -269q-119 0 -203 84t-84 203v76h47v-76q0 -100 70.5 -170t169.5 -70t169.5 70t70.5 170v297h47v-268h132q39 0 67 28t28 67v173h47v-173q0 -55 -36 -95h168q40 0 67.5 28t27.5 67v173h47v-173q0 -59 -41.5 -100.5t-100.5 -41.5h-177l-13 27q-38 -27 -84 -27h-133
q-7 -113 -89.5 -191t-196.5 -78zM775 483.5q0 14.5 10.5 25t24.5 10.5q10 0 18 -4.5t13 -13t5 -17.5q0 -15 -10.5 -25.5t-25 -10.5t-25 10.5t-10.5 25zM843 604.5q0 14.5 10 25t25 10.5t25.5 -10.5t10.5 -25t-10.5 -25t-25.5 -10.5t-25 10.5t-10 25zM910 483.5
q0 14.5 10.5 25t25.5 10.5t25 -10.5t10 -25t-10 -25t-25 -10.5t-25.5 10.5t-10.5 25z" />
    <glyph glyph-name="uni0635" unicode="&#x635;" horiz-adv-x="1230" 
d="M341 -267q-119 0 -203 84t-84 203v74h47v-74q0 -66 32 -121t87.5 -87t120.5 -32q99 0 169.5 70t70.5 170v295h47v-268h391q46 0 78 32.5t32 77.5q0 30 -14.5 55.5t-40 40.5t-55.5 15h-362l23 47h339q65 0 111 -46.5t46 -111.5t-46 -111t-111 -46h-392q-7 -112 -90 -189.5
t-196 -77.5z" />
    <glyph glyph-name="uni0636" unicode="&#x636;" horiz-adv-x="1230" 
d="M341 -267q-119 0 -203 84t-84 203v74h47v-74q0 -66 32 -121t87.5 -87t120.5 -32q99 0 169.5 70t70.5 170v295h47v-268h391q46 0 78 32.5t32 77.5q0 30 -14.5 55.5t-40 40.5t-55.5 15h-362l23 47h339q65 0 111 -46.5t46 -111.5t-46 -111t-111 -46h-392q-7 -112 -90 -189.5
t-196 -77.5zM852 483.5q0 14.5 10.5 25t25 10.5t25 -10.5t10.5 -25t-10.5 -25t-25 -10.5t-25 10.5t-10.5 25z" />
    <glyph glyph-name="uni0637" unicode="&#x637;" horiz-adv-x="837" 
d="M77 0l-23 47h133v428h47v-428h391q30 0 55.5 15t40.5 40t15 55q0 46 -32.5 78.5t-78.5 32.5h-361l22 47h339q43 0 79.5 -21.5t57.5 -57.5t21 -79q0 -65 -46 -111t-112 -46h-548z" />
    <glyph glyph-name="uni0638" unicode="&#x638;" horiz-adv-x="837" 
d="M77 0l-23 47h133v428h47v-428h391q30 0 55.5 15t40.5 40t15 55q0 46 -32.5 78.5t-78.5 32.5h-361l22 47h339q43 0 79.5 -21.5t57.5 -57.5t21 -79q0 -65 -46 -111t-112 -46h-548zM459 484q0 9 4.5 17.5t12.5 13t18 4.5q15 0 25.5 -10.5t10.5 -25t-10.5 -25t-25.5 -10.5
t-25 10.5t-10 25.5z" />
    <glyph glyph-name="uni0639" unicode="&#x639;" horiz-adv-x="504" 
d="M232 -314q-49 0 -90.5 24t-66 65.5t-24.5 90.5q0 63 38.5 112t98.5 63q-51 47 -51 116q0 65 46 111.5t111 46.5h80v-47h-80q-46 0 -78 -32.5t-32 -78t32 -78t78 -32.5h127v-47h-189q-56 0 -95 -39t-39 -94.5t39.5 -94.5t94.5 -39h221v-47h-221z" />
    <glyph glyph-name="uni063A" unicode="&#x63a;" horiz-adv-x="504" 
d="M232 -314q-49 0 -90.5 24t-66 65.5t-24.5 90.5q0 63 38.5 112t98.5 63q-51 47 -51 116q0 65 46 111.5t111 46.5h80v-47h-80q-46 0 -78 -32.5t-32 -78t32 -78t78 -32.5h127v-47h-189q-56 0 -95 -39t-39 -94.5t39.5 -94.5t94.5 -39h221v-47h-221zM255 484q0 9 5 17.5t13 13
t18 4.5q15 0 25 -10.5t10 -25t-10 -25t-25 -10.5t-25.5 10.5t-10.5 25.5z" />
    <glyph glyph-name="uni0640" unicode="&#x640;" horiz-adv-x="205" 
d="M0 0v47h215v-47h-215z" />
    <glyph glyph-name="uni0641" unicode="&#x641;" horiz-adv-x="913" 
d="M209 0q-66 0 -112 46t-46 111t46 111.5t112 46.5h25v-47h-25q-46 0 -78.5 -32.5t-32.5 -78t32.5 -78t78.5 -32.5h363q-45 46 -45 110q0 65 46 111.5t111 46.5h178v-315h-653zM574 157q0 -45 32 -77.5t77 -32.5h131v221h-130q-46 0 -78 -32.5t-32 -78.5zM693 484
q0 9 5 17.5t13 13t18 4.5q15 0 25.5 -10.5t10.5 -25t-10.5 -25t-25.5 -10.5t-25.5 10.5t-10.5 25.5z" />
    <glyph glyph-name="uni0642" unicode="&#x642;" horiz-adv-x="676" 
d="M338 -267q-119 0 -203 84t-84 203v74h47v-74q0 -100 70.5 -170t169.5 -70q94 0 163 63.5t76 156.5h-130q-65 0 -111 46t-46 111t46 111.5t111 46.5h178v-293v-2q0 -119 -84 -203t-203 -84zM337 157.5q0 -45.5 32.5 -78t77.5 -32.5h131v221h-131q-45 0 -77.5 -32.5
t-32.5 -78zM389 483.5q0 14.5 10.5 25t25.5 10.5q9 0 17.5 -4.5t13 -13t4.5 -18t-4.5 -17.5t-13 -13t-17.5 -5q-15 0 -25.5 10.5t-10.5 25zM525 484q0 9 4.5 17.5t13 13t17.5 4.5q7 0 14 -2.5t11.5 -7.5t7.5 -11.5t3 -13.5q0 -10 -5 -18t-13 -13t-18 -5q-14 0 -24.5 10.5
t-10.5 25.5z" />
    <glyph glyph-name="uni0643" unicode="&#x643;" horiz-adv-x="843" 
d="M209 0q-43 0 -79.5 21t-57.5 57.5t-21 78.5q0 65 46 111.5t112 46.5h25v-47h-25q-46 0 -78.5 -32.5t-32.5 -78t32.5 -78t78.5 -32.5h536v428h47v-428v-47v0h-47h-536zM391 404v24h54q-23 23 -23 56q0 22 10.5 40.5t29 29.5t40.5 11h42v-23h-42q-23 0 -40 -17t-17 -40
q0 -16 7.5 -29t21 -20.5t28.5 -7.5h66v-24h-177z" />
    <glyph glyph-name="uni0644" unicode="&#x644;" horiz-adv-x="681" 
d="M341 -267q-119 0 -203 84t-84 203v74h47v-74q0 -100 70.5 -170t169.5 -70t169.5 70t70.5 170v455h47v-455q0 -119 -84 -203t-203 -84z" />
    <glyph glyph-name="uni0645" unicode="&#x645;" horiz-adv-x="648" 
d="M54 157q0 65 46 111.5t111 46.5h382v-178q0 -65 -46 -111t-111 -46t-111 46t-46 111v48l47 22v-70q0 -30 14.5 -55.5t40 -40t55.5 -14.5q46 0 78 32t32 78v131h-335q-45 0 -77.5 -32.5t-32.5 -78.5v-424h-47v424z" />
    <glyph glyph-name="uni0646" unicode="&#x646;" horiz-adv-x="682" 
d="M341 -267q-119 0 -203 84t-84 203v74h47v-74q0 -66 32 -121t87.5 -87t120.5 -32q99 0 169.5 70t70.5 170v295h47v-295q0 -119 -84 -203t-203 -84zM305 324q0 10 5 18t13 13t18 5q15 0 25 -10.5t10 -25t-10 -25t-25 -10.5t-25.5 10.5t-10.5 24.5z" />
    <glyph glyph-name="uni0647" unicode="&#x647;" horiz-adv-x="438" 
d="M209 0q-66 0 -112 46t-46 111t46 111.5t112 46.5h177v-315h-177zM98 157.5q0 -45.5 32.5 -78t78.5 -32.5h130v221h-130q-46 0 -78.5 -32.5t-32.5 -78z" />
    <glyph glyph-name="uni0648" unicode="&#x648;" horiz-adv-x="437" 
d="M209 0q-66 0 -112 46t-46 111t46 111.5t112 46.5h177v-315v-59q0 -86 -61 -147t-147 -61h-40l-23 47h63q67 0 114 47t47 114v59h-130zM98 157.5q0 -45.5 32.5 -78t78.5 -32.5h130v221h-130q-46 0 -78.5 -32.5t-32.5 -78z" />
    <glyph glyph-name="uni0649" unicode="&#x649;" horiz-adv-x="987" 
d="M704 47l-1 -47h-494q-65 0 -111.5 46t-46.5 111t46.5 111.5t111.5 46.5h122v-47h-122q-46 0 -78.5 -32.5t-32.5 -78t32.5 -78t78.5 -32.5h447v110q0 43 21.5 79t57.5 57.5t79 21.5h122v-315h-47v268h-75q-46 0 -78.5 -32.5t-32.5 -78.5z" />
    <glyph glyph-name="uni064A" unicode="&#x64a;" horiz-adv-x="987" 
d="M704 47l-1 -47h-494q-65 0 -111.5 46t-46.5 111t46.5 111.5t111.5 46.5h122v-47h-122q-46 0 -78.5 -32.5t-32.5 -78t32.5 -78t78.5 -32.5h447v110q0 43 21.5 79t57.5 57.5t79 21.5h122v-315h-47v268h-75q-46 0 -78.5 -32.5t-32.5 -78.5zM450 -144.5q0 -14.5 10.5 -25
t24.5 -10.5q10 0 18 5t13 13t5 18q0 14 -10.5 24.5t-25 10.5t-25 -10.5t-10.5 -25zM585 -144.5q0 -14.5 10.5 -25t25.5 -10.5t25 10.5t10 25t-10 25t-25 10.5t-25.5 -10.5t-10.5 -25z" />
    <glyph glyph-name="uni064B" unicode="&#x64b;" 
d="M166 765v-16l-146 -41v16zM20 767v17l146 40v-16z" />
    <glyph glyph-name="uni064C" unicode="&#x64c;" 
d="M20 708v15l32 9q11 3 16 12t2 19.5t-12 16t-20 2.5l-16 -5v15l13 3q11 3 20.5 0.5t17.5 -10t11 -17.5q4 -15 -2 -28l43 12l-7 25q-5 16 3 30.5t24 19t30.5 -4t19 -24.5t-3.5 -30t-24 -19l-25 -7l4 -13l-14 -4l-4 13l-71 -20h-1zM131 781l7 -25l25 7q10 3 15.5 12
t2.5 19.5t-12.5 15.5t-19.5 3q-5 -2 -9 -5t-6.5 -7.5t-3 -9.5t0.5 -10z" />
    <glyph glyph-name="uni064D" unicode="&#x64d;" 
d="M166 -334v-16l-146 -41v16zM20 -332v16l146 41v-16z" />
    <glyph glyph-name="uni064E" unicode="&#x64e;" 
d="M166 749l-146 -41v16l146 41v-16z" />
    <glyph glyph-name="uni064F" unicode="&#x64f;" 
d="M20 708v15l83 23l-7 25q-5 16 3.5 30.5t24.5 18.5q7 2 15 1t15 -4.5t12 -10t7 -14.5q2 -11 0 -21t-10 -17.5t-18 -10.5l-25 -7l4 -14l-14 -3l-4 13zM109 775l7 -25l25 7q7 2 12 7t6.5 11t-0.5 14q-3 10 -12 15t-19.5 2.5t-16 -12t-2.5 -19.5z" />
    <glyph glyph-name="uni0650" unicode="&#x650;" 
d="M166 -291l-146 -41v16l146 41v-16z" />
    <glyph glyph-name="uni0651" unicode="&#x651;" 
d="M125 513q-21 0 -33 17q-12 -17 -33 -17q-17 0 -28.5 11.5t-11.5 28.5v40h14v-40q0 -11 7.5 -18.5t18 -7.5t18.5 7.5t8 18.5v40h14v-40q0 -11 7.5 -18.5t18 -7.5t18 7.5t7.5 18.5v40h15v-40q0 -17 -12 -28.5t-28 -11.5z" />
    <glyph glyph-name="uni0652" unicode="&#x652;" 
d="M65 723q8 0 15 4t11 10.5t4 14.5q0 15 -11 25q-7 7 -19 14q-12 -7 -19 -14q-11 -10 -11 -25q0 -8 4 -14.5t11 -10.5t15 -4zM20 753q0 20 15 34q11 11 30 17q19 -6 30 -17q15 -14 15 -34q0 -19 -13 -32t-32 -13t-32 13t-13 32z" />
    <glyph glyph-name="uni0654" unicode="&#x654;" 
d="M8 513v19h42q-18 18 -18 44t18.5 44.5t44.5 18.5h33v-19h-33q-18 0 -31 -12.5t-13 -31t13 -31.5t31 -13h52v-19h-139z" />
    <glyph glyph-name="uni0655" unicode="&#x655;" 
d="M8 -174v18h42q-18 19 -18 45t18.5 44.5t44.5 18.5h33v-19h-33q-12 0 -22 -6t-16 -16t-6 -22q0 -19 13 -32t31 -13h52v-18h-139z" />
    <glyph glyph-name="uni0660" unicode="&#x660;" horiz-adv-x="208" 
d="M104 172l53 -53l-53 -52l-53 52z" />
    <glyph glyph-name="uni0661" unicode="&#x661;" horiz-adv-x="150" 
d="M51 0v467l47 8v-475h-47z" />
    <glyph glyph-name="uni0662" unicode="&#x662;" horiz-adv-x="344" 
d="M292 475l-13 -47h-181v-428h-47v475h241z" />
    <glyph glyph-name="uni0663" unicode="&#x663;" horiz-adv-x="413" 
d="M225 279l-14 29q-24 -29 -61 -29h-52v-279h-47v475h47v-149h53q13 0 22.5 9.5t9.5 22.5v117h47v-116q0 -17 -7 -33h59q13 0 22.5 9.5t9.5 22.5v117h47v-116q0 -33 -23.5 -56.5t-56.5 -23.5h-56z" />
    <glyph glyph-name="uni0664" unicode="&#x664;" horiz-adv-x="306" 
d="M176 214h-1.5h-1.5h-15q-35 0 -59 -24.5t-24 -59t24.5 -59t58.5 -24.5h144l-13 -47h-131q-54 0 -92 38t-38 92q0 36 17.5 66t47.5 47q-48 40 -48 101q0 54 38.5 92.5t92.5 38.5h95v-47h-95q-35 0 -59.5 -24.5t-24.5 -59.5q0 -34 24 -58t58 -25h74h23v-47h-95z" />
    <glyph glyph-name="uni0665" unicode="&#x665;" horiz-adv-x="424" 
d="M212 343q65 -22 108 -63q52 -49 52 -119q0 -67 -47 -114t-113.5 -47t-113.5 47t-47 114q0 70 52 119q43 41 109 63zM101 161q0 -46 32.5 -79t78.5 -33q45 0 77.5 32.5t33.5 79.5q0 55 -40 95q-32 31 -71 53q-39 -22 -71 -53q-40 -40 -40 -95z" />
    <glyph glyph-name="uni0666" unicode="&#x666;" horiz-adv-x="343" 
d="M292 475v-475h-47v428h-194l13 47h228z" />
    <glyph glyph-name="uni0667" unicode="&#x667;" horiz-adv-x="388" 
d="M217 0h-46l-154 475h49l128 -425l128 425h49z" />
    <glyph glyph-name="uni0668" unicode="&#x668;" horiz-adv-x="388" 
d="M217 475l154 -475h-50l-127 425l-128 -425h-49l154 475h46z" />
    <glyph glyph-name="uni0669" unicode="&#x669;" horiz-adv-x="352" 
d="M301 475v-475h-47v214h-72q-54 0 -92.5 38t-38.5 92t38.5 92.5t92.5 38.5h119zM98 344q0 -22 11.5 -41.5t30.5 -30.5t42 -11h72v167h-72q-35 0 -59.5 -24.5t-24.5 -59.5z" />
    <glyph glyph-name="uni066A" unicode="&#x66a;" horiz-adv-x="396" 
d="M318 475l-180 -475h-59l180 475h59zM25 370.5q0 17.5 12.5 30.5t30.5 13t30.5 -13t12.5 -30.5t-12.5 -30t-30.5 -12.5t-30.5 12.5t-12.5 30zM286 105.5q0 17.5 12.5 30t30 12.5t30.5 -12.5t13 -30t-13 -30.5t-30.5 -13t-30 13t-12.5 30.5z" />
    <glyph glyph-name="uni066B" unicode="&#x66b;" horiz-adv-x="169" 
d="M47 -49q4 60 4 108h63q-2 -65 -14 -134z" />
    <glyph glyph-name="uni066C" unicode="&#x66c;" horiz-adv-x="169" 
d="M47 -49q4 60 4 108h63q-2 -65 -14 -134z" />
    <glyph glyph-name="uni066D" unicode="&#x66d;" horiz-adv-x="576" 
d="M288 498l56 -172h181l-146 -107l55 -172l-146 107l-146 -107l56 172l-147 107h181z" />
    <glyph glyph-name="uni067E" unicode="&#x67e;" horiz-adv-x="761" 
d="M211 0q-42 0 -78.5 21t-57.5 57.5t-21 78.5q0 65 46 111.5t111 46.5h25v-47h-25q-45 0 -77.5 -32.5t-32.5 -78t32.5 -78t77.5 -32.5h449v268h47v-315h-496zM333 -144.5q0 14.5 10.5 25t25.5 10.5q9 0 17.5 -4.5t13 -13t4.5 -17.5q0 -15 -10.5 -25.5t-25 -10.5t-25 10.5
t-10.5 25zM401 -228q0 15 10.5 25.5t25 10.5t25 -10.5t10.5 -25.5t-10.5 -25t-25 -10t-25 10t-10.5 25zM469 -144.5q0 14.5 10.5 25t25 10.5t25 -10.5t10.5 -25t-10.5 -25t-25 -10.5t-25 10.5t-10.5 25z" />
    <glyph glyph-name="uni06A4" unicode="&#x6a4;" horiz-adv-x="913" 
d="M209 0q-66 0 -112 46t-46 111t46 111.5t112 46.5h25v-47h-25q-46 0 -78.5 -32.5t-32.5 -78t32.5 -78t78.5 -32.5h363q-45 46 -45 110q0 65 46 111.5t111 46.5h178v-315h-653zM574 157q0 -45 32 -77.5t77 -32.5h131v221h-130q-46 0 -78 -32.5t-32 -78.5zM626 484
q0 9 4.5 17.5t13 13t17.5 4.5q15 0 25.5 -10.5t10.5 -24.5q0 -10 -5 -18t-13 -13t-18 -5q-14 0 -24.5 10.5t-10.5 25.5zM693 604.5q0 14.5 10.5 25t25.5 10.5t25.5 -10.5t10.5 -25t-10.5 -25t-25.5 -10.5t-25.5 10.5t-10.5 25zM761 484q0 9 5 17.5t13 13t18 4.5
q7 0 13.5 -2.5t11.5 -7.5t7.5 -11.5t2.5 -13.5q0 -15 -10.5 -25.5t-25 -10.5t-25 10.5t-10.5 25.5z" />
    <glyph glyph-name="uni06CC" unicode="&#x6cc;" horiz-adv-x="987" 
d="M704 47l-1 -47h-494q-65 0 -111.5 46t-46.5 111t46.5 111.5t111.5 46.5h122v-47h-122q-46 0 -78.5 -32.5t-32.5 -78t32.5 -78t78.5 -32.5h447v110q0 43 21.5 79t57.5 57.5t79 21.5h122v-315h-47v268h-75q-46 0 -78.5 -32.5t-32.5 -78.5z" />
    <glyph glyph-name="quoteleft" unicode="&#x2018;" horiz-adv-x="143" 
d="M102 559l-7 -242h-47l-7 242h61z" />
    <glyph glyph-name="quoteright" unicode="&#x2019;" horiz-adv-x="143" 
d="M102 559l-7 -242h-47l-7 242h61z" />
    <glyph glyph-name="quotesinglbase" unicode="&#x201a;" horiz-adv-x="25" 
d="M47 -49q4 60 4 108h63q-2 -65 -14 -134z" />
    <glyph glyph-name="quotedblleft" unicode="&#x201c;" horiz-adv-x="284" 
d="M66 617q-31 -120 -26 -245l52 -16q0 124 35 243zM157 337l53 -16q0 124 35 243l-61 18q-31 -120 -27 -245z" />
    <glyph glyph-name="quotedblright" unicode="&#x201d;" horiz-adv-x="287" 
d="M220 617q31 -120 26 -245l-52 -16q0 124 -36 243zM41 564l61 18q31 -120 26 -245l-52 -16q0 124 -35 243z" />
    <glyph glyph-name="quotedblbase" unicode="&#x201e;" horiz-adv-x="25" 
d="M47 -49q4 60 4 108h63q-2 -65 -14 -134z" />
    <glyph glyph-name="bullet" unicode="&#x2022;" horiz-adv-x="329" 
d="M274 162.5q0 45.5 -32 77.5t-77.5 32t-77.5 -32t-32 -77.5t32 -77.5t77.5 -32t77.5 32t32 77.5z" />
    <glyph glyph-name="ellipsis" unicode="&#x2026;" horiz-adv-x="378" 
d="M321 0q-10 0 -18 4.5t-12.5 12.5t-4.5 17q0 15 10 25t24.5 10t24.5 -10t10 -24.5t-10 -24.5t-24 -10zM23 34.5q0 14.5 10 24.5t24 10q10 0 18 -4.5t12.5 -12.5t4.5 -18q0 -14 -10 -24t-24.5 -10t-24.5 10t-10 24.5zM155 34.5q0 14.5 10 24.5t24 10q9 0 17 -4.5
t12.5 -12.5t4.5 -18q0 -14 -10 -24t-24 -10t-24 10t-10 24.5z" />
    <glyph glyph-name="guilsinglleft" unicode="&#x2039;" horiz-adv-x="156" 
d="M140 315l-71 -158l71 -157h-53l-70 157l70 158h53z" />
    <glyph glyph-name="guilsinglright" unicode="&#x203a;" horiz-adv-x="156" 
d="M17 315h52l71 -158l-71 -157h-52l70 157z" />
    <glyph glyph-name="uni2219" unicode="&#x2219;" horiz-adv-x="329" 
d="M274 169q0 45 -32 77t-77.5 32t-77.5 -32t-32 -77.5t32 -77.5t78 -32q22 0 42 9t35 23.5t23.5 34.5t8.5 43z" />
    <glyph glyph-name="uni22C6" unicode="&#x22c6;" horiz-adv-x="339" 
d="M196 496h83l-67 -50l25 -79l-67 49l-68 -49l26 79l-68 50h84l26 79z" />
    <glyph glyph-name="uni300A" unicode="&#x300a;" horiz-adv-x="277" 
d="M260 315l-70 -158l70 -157h-52l-71 157l71 158h52zM17 157l70 158h53l-71 -158l71 -157h-53z" />
    <glyph glyph-name="uni300B" unicode="&#x300b;" horiz-adv-x="277" 
d="M137 315h53l70 -158l-70 -157h-53l71 157zM17 0l70 157l-70 158h52l71 -158l-71 -157h-52z" />
    <glyph glyph-name="uniFD3E" unicode="&#xfd3e;" horiz-adv-x="313" 
d="M206 -72q-20 34 -28 66.5t-17 93.5q-12 89 -32 131l-33 -33l-52 51l52 51l33 -33q20 43 32 132q5 32 7.5 47.5t7.5 37.5t12 39t18 36l48 -13q-31 -59 -41 -149q-10 -88 -41 -148q31 -60 41 -147q10 -90 41 -149z" />
    <glyph glyph-name="uniFD3F" unicode="&#xfd3f;" horiz-adv-x="301" 
d="M48 -59q30 59 41 149q9 87 40 147q-31 60 -40 148q-11 90 -41 149l48 13q13 -24 22 -50.5t12.5 -47t9.5 -62.5q13 -89 32 -132l34 34l51 -52l-51 -51l-34 33q-19 -42 -32 -131q-6 -42 -9.5 -62.5t-12.5 -47t-22 -50.5z" />
    <glyph glyph-name="uniFF0A" unicode="&#xff0a;" horiz-adv-x="391" 
d="M225 299l-7 -111l104 41l18 -56l-109 -27l72 -86l-48 -35l-59 95l-60 -95l-48 35l72 86l-109 27l18 56l104 -41l-7 111h59z" />
    <glyph glyph-name="uniFF0C" unicode="&#xff0c;" horiz-adv-x="169" 
d="M47 -49q4 60 4 108h63q-2 -65 -14 -134z" />
    <glyph glyph-name="uniFF1A" unicode="&#xff1a;" horiz-adv-x="174" 
d="M87 189q-15 0 -25.5 10.5t-10.5 25.5q0 9 5 17.5t13 13t18 4.5q15 0 25 -10.5t10 -24.5q0 -10 -4.5 -18t-13 -13t-17.5 -5zM51 90q0 7 3 13.5t7.5 11.5t11.5 7.5t14 2.5q9 0 17.5 -4.5t13 -13t4.5 -17.5q0 -15 -10 -25.5t-25 -10.5t-25.5 10.5t-10.5 25.5z" />
    <glyph glyph-name="uniFF1F" unicode="&#xff1f;" horiz-adv-x="364" 
d="M187 214h-84v-112h-47v112v47h131q35 0 59 24.5t24 59t-24 59t-59 24.5h-131v47h131q54 0 92 -38.5t38 -92.5t-38 -92t-92 -38zM49 25.5q0 12.5 9 21.5t21.5 9t21.5 -9t9 -21.5t-9 -21.5t-21.5 -9t-21.5 9t-9 21.5z" />
    <glyph glyph-name="uni0644.init.swsh" horiz-adv-x="209" 
d="M0 0v47h35q30 0 51.5 21.5t21.5 51.5v355h47v-355q0 -50 -35 -85t-85 -35h-35z" />
    <glyph glyph-name="uni06CC.isol" horiz-adv-x="987" 
d="M704 47l-1 -47h-494q-65 0 -111.5 46t-46.5 111t46.5 111.5t111.5 46.5h122v-47h-122q-46 0 -78.5 -32.5t-32.5 -78t32.5 -78t78.5 -32.5h447v110q0 43 21.5 79t57.5 57.5t79 21.5h122v-315h-47v268h-75q-46 0 -78.5 -32.5t-32.5 -78.5z" />
    <glyph glyph-name="uni06440627" horiz-adv-x="504" 
d="M77 0l-23 47h156v358h47v-358h72q31 0 52 21.5t21 51.5v355h47v-355q0 -50 -35 -85t-85 -35h-252z" />
    <glyph glyph-name="uni06440627.fina" horiz-adv-x="558" 
d="M77 0l-23 47h156v358h47v-358h72q31 0 52 21.5t21 51.5v355h47v-355q0 -50 -35 -85t-85 -35h-252zM435 47h133v-47h-75q-28 0 -43 23z" />
    <glyph glyph-name="uni06440623" horiz-adv-x="504" 
d="M77 0l-23 47h156v358h47v-358h72q31 0 52 21.5t21 51.5v355h47v-355q0 -50 -35 -85t-85 -35h-252zM143 475v19h42q-18 18 -18 44q0 17 8.5 31.5t23 23t31.5 8.5h33v-19h-33q-18 0 -31 -13t-13 -31t13 -31t31 -13h52v-19h-139z" />
    <glyph glyph-name="uni06440623.fina" horiz-adv-x="558" 
d="M77 0l-23 47h156v358h47v-358h72q31 0 52 21.5t21 51.5v355h47v-355q0 -50 -35 -85t-85 -35h-252zM143 475v19h42q-18 18 -18 44t18.5 44.5t44.5 18.5h33v-19h-33q-18 0 -31 -13t-13 -31t13 -31t31 -13h52v-19h-139zM435 47h133v-47h-75q-28 0 -43 23z" />
    <glyph glyph-name="uni06440625" horiz-adv-x="504" 
d="M77 0l-23 47h156v358h47v-358h72q31 0 52 21.5t21 51.5v355h47v-355q0 -50 -35 -85t-85 -35h-252zM136 -174v18h42q-18 19 -18 45t18.5 44.5t45.5 18.5h33v-19h-33q-19 0 -32 -13t-13 -31.5t13 -31.5t32 -13h52v-18h-140z" />
    <glyph glyph-name="uni06440625.fina" horiz-adv-x="558" 
d="M77 0l-23 47h156v358h47v-358h72q31 0 52 21.5t21 51.5v355h47v-355q0 -50 -35 -85t-85 -35h-252zM136 -174v18h42q-18 19 -18 45t18.5 44.5t45.5 18.5h33v-19h-33q-19 0 -32 -13t-13 -31.5t13 -31.5t32 -13h52v-18h-140zM435 47h133v-47h-75q-28 0 -43 23z" />
    <glyph glyph-name="uni06440622" horiz-adv-x="504" 
d="M77 0l-23 47h156v358h47v-358h72q31 0 52 21.5t21 51.5v355h47v-355q0 -50 -35 -85t-85 -35h-252zM146 418v2v-2zM146 420l28 3v4q0 4 3 7.5t8 3.5h62q14 0 25 9t13 24v5v-5h-28v-4q0 -4 -3 -7.5t-7 -3.5h-62q-11 0 -19.5 -4.5t-13.5 -13t-6 -18.5z" />
    <glyph glyph-name="uni06440622.fina" horiz-adv-x="558" 
d="M77 0l-23 47h156v358h47v-358h72q31 0 52 21.5t21 51.5v355h47v-355q0 -50 -35 -85t-85 -35h-252zM146 418v2v-2zM146 420l28 3v4q0 4 3 7.5t8 3.5h62q14 0 25 9t13 24v5v-5h-28v-4q0 -4 -3 -7.5t-7 -3.5h-62q-11 0 -19.5 -4.5t-13.5 -13t-6 -18.5zM435 47h133v-47h-75
q-28 0 -43 23z" />
    <glyph glyph-name="uni064406440647" horiz-adv-x="985" 
d="M208 0q-65 0 -111 46t-46 111.5t46 111.5t111 46h178v-268h154q30 0 51.5 21.5t21.5 51.5v355h47v-355q0 -32 -16 -60t-44 -44t-60 -16h-201v268h-131q-45 0 -77.5 -32.5t-32.5 -78t32.5 -78t77.5 -32.5h66l-22 -47h-44zM563 585v40h14v-40q0 -11 7.5 -18.5t18.5 -7.5
t18.5 7.5t7.5 18.5v40h14v-40q0 -11 7.5 -18.5t18.5 -7.5t18.5 7.5t7.5 18.5v40h14v-40q0 -11 -5.5 -20t-14.5 -14.5t-20 -5.5q-21 0 -33 18q-12 -18 -33 -18q-16 0 -28 12t-12 28zM629 668v82l14 4v-79zM640 47h173q31 0 52.5 21.5t21.5 51.5v355h47v-355q0 -50 -35.5 -85
t-85.5 -35h-115q-27 0 -42 23z" />
    <glyph glyph-name="uni064406440647.rlig" horiz-adv-x="985" 
d="M208 0q-65 0 -111 46t-46 111.5t46 111.5t111 46h178v-268h154q30 0 51.5 21.5t21.5 51.5v355h47v-355q0 -32 -16 -60t-44 -44t-60 -16h-201v268h-131q-45 0 -77.5 -32.5t-32.5 -78t32.5 -78t77.5 -32.5h66l-22 -47h-44zM563 585v40h14v-40q0 -11 7.5 -18.5t18.5 -7.5
t18.5 7.5t7.5 18.5v40h14v-40q0 -11 7.5 -18.5t18.5 -7.5t18.5 7.5t7.5 18.5v40h14v-40q0 -11 -5.5 -20t-14.5 -14.5t-20 -5.5q-21 0 -33 18q-12 -18 -33 -18q-16 0 -28 12t-12 28zM629 668v82l14 4v-79zM640 47h173q31 0 52.5 21.5t21.5 51.5v355h47v-355q0 -50 -35.5 -85
t-85.5 -35h-115q-27 0 -42 23z" />
    <glyph glyph-name="uni0651064B" 
d="M20 870v17l146 40v-16zM20 748l-1 40h14v-40q0 -11 7.5 -18.5t18.5 -7.5q7 0 13 3.5t9.5 9.5t3.5 13v40h14v-40q0 -11 7.5 -18.5t18.5 -7.5t18.5 7.5t7.5 18.5v40h14v-40q0 -16 -11.5 -28t-27.5 -12q-21 0 -33 18q-12 -18 -33 -18q-17 0 -28.5 12t-11.5 28zM19 811v16
l146 41v-16z" />
    <glyph glyph-name="uni0651064C" 
d="M118 880q-5 16 3 30.5t24 19t30.5 -3.5t19 -24t-3.5 -30.5t-24 -19.5l-25 -7l4 -13l-14 -4l-4 14l-71 -20l-1 -1l-36 -10v15l33 9q10 3 15 12.5t2 19.5t-12 15.5t-20 2.5l-16 -5v15l13 3q16 5 30 -3t19 -24q4 -14 -2 -28l43 12zM20 748l-1 40h14v-40q0 -11 7.5 -18.5
t18.5 -7.5q7 0 13 3.5t9.5 9.5t3.5 13v40h14v-40q0 -11 7.5 -18.5t18.5 -7.5t18.5 7.5t7.5 18.5v40h14v-40q0 -16 -11.5 -28t-27.5 -12q-21 0 -33 18q-12 -18 -33 -18q-17 0 -28.5 12t-11.5 28zM130 884l7 -25l25 7q11 3 16 12t2 19.5t-12 15.5t-19.5 2.5t-16 -12
t-2.5 -19.5z" />
    <glyph glyph-name="uni0651064D" 
d="M20 708v16l146 41v-16zM20 767v17l146 40v-16zM20 899l-1 39h14v-40q0 -11 7.5 -18.5t18.5 -7.5t18.5 7.5t7.5 18.5v40h14v-40q0 -11 7.5 -18.5t18.5 -7.5t18.5 7.5t7.5 18.5v40h14v-40q0 -17 -11.5 -28.5t-27.5 -10.5q-21 0 -33 17q-12 -17 -33 -17q-11 0 -20 5
t-14.5 14.5t-5.5 20.5z" />
    <glyph glyph-name="uni0651064E" 
d="M20 811v17l146 40v-16zM20 748l-1 40h14v-40q0 -11 7.5 -18.5t18.5 -7.5q7 0 13 3.5t9.5 9.5t3.5 13v40h14v-40q0 -11 7.5 -18.5t18.5 -7.5t18.5 7.5t7.5 18.5v40h14v-40q0 -16 -11.5 -28t-27.5 -12q-21 0 -33 18q-12 -18 -33 -18q-17 0 -28.5 12t-11.5 28z" />
    <glyph glyph-name="uni06510650" 
d="M166 765v-16l-146 -41v16zM20 813l-1 39h14v-40q0 -11 7.5 -18.5t18.5 -7.5t18.5 7.5t7.5 18.5v40h14v-40q0 -11 7.5 -18.5t18.5 -7.5t18.5 7.5t7.5 18.5v40h14v-40q0 -16 -11.5 -28t-27.5 -11q-21 0 -33 17q-12 -17 -33 -17q-17 0 -28.5 11.5t-11.5 28.5z" />
    <glyph glyph-name="uni06510670" 
d="M59 567l-1 -1q-16 0 -28 11.5t-12 28.5v40h14v-40q0 -11 7.5 -18.5t18.5 -7.5t18.5 7.5t7.5 18.5v40h14v-40q0 -11 7.5 -18.5t18.5 -7.5t18.5 7.5t7.5 18.5v40h14v-40q0 -17 -11.5 -28.5t-27.5 -10.5q-21 0 -33 17q-12 -17 -33 -17zM84 689v83l14 3v-79z" />
    <glyph glyph-name="upm" horiz-adv-x="170" 
d="M50 -450v1360h70v-1360h-70z" />
    </font>
</defs>
</svg>
